<svg width="263" height="271" viewBox="0 0 263 271" fill="none" xmlns="http://www.w3.org/2000/svg">
<mask id="mask0_1_163" style="mask-type:alpha" maskUnits="userSpaceOnUse" x="0" y="0" width="263" height="271">
<path d="M0 0H239C252.255 0 263 10.7452 263 24V247C263 260.255 252.255 271 239 271H0V0Z" fill="#EEF0F2"/>
</mask>
<g mask="url(#mask0_1_163)">
<path fill-rule="evenodd" clip-rule="evenodd" d="M222.659 -21.742C296.919 -19.9909 378.235 -58.5421 436.837 -12.8979C501.822 37.7174 526.221 127.677 519.943 209.807C513.574 293.136 478.649 384.197 403.666 421.099C334.42 455.179 262.595 383.171 185.942 374.185C113.227 365.66 28.2766 420.694 -25.31 370.808C-79.7638 320.115 -58.4839 230.745 -47.1171 157.221C-36.6521 89.5298 -21.6038 15.5021 35.4741 -22.3621C89.5261 -58.2189 157.813 -23.271 222.659 -21.742Z" stroke="#B9BCC7"/>
<path fill-rule="evenodd" clip-rule="evenodd" d="M230.816 -29.1209C305.076 -27.3698 386.392 -65.921 444.995 -20.2768C509.979 30.3385 534.378 120.298 528.101 202.429C521.732 285.757 486.807 376.818 411.824 413.72C342.578 447.8 270.753 375.792 194.1 366.806C121.385 358.281 36.4343 413.315 -17.1523 363.429C-71.606 312.736 -50.3262 223.366 -38.9594 149.842C-28.4943 82.1509 -13.4461 8.12318 43.6318 -29.741C97.6838 -65.5978 165.97 -30.6499 230.816 -29.1209Z" stroke="#B9BCC7"/>
<path fill-rule="evenodd" clip-rule="evenodd" d="M238.974 -36.5C313.234 -34.7489 394.55 -73.3002 453.153 -27.6559C518.137 22.9593 542.536 112.918 536.259 195.049C529.89 278.378 494.965 369.439 419.982 406.341C350.736 440.42 278.911 368.413 202.258 359.427C129.543 350.902 44.5923 405.936 -8.99435 356.05C-63.4481 305.357 -42.1682 215.987 -30.8014 142.463C-20.3364 74.7718 -5.28817 0.74403 51.7898 -37.1201C105.842 -72.9769 174.128 -38.0291 238.974 -36.5Z" stroke="#B9BCC7"/>
<path fill-rule="evenodd" clip-rule="evenodd" d="M247.132 -43.8789C321.392 -42.1279 402.708 -80.6791 461.31 -35.0348C526.295 15.5804 550.694 105.54 544.417 187.671C538.048 270.999 503.123 362.06 428.14 398.962C358.894 433.042 287.068 361.034 210.416 352.048C137.701 343.523 52.75 398.557 -0.836634 348.671C-55.2904 297.978 -34.0105 208.608 -22.6437 135.084C-12.1787 67.3929 2.86954 -6.63488 59.9475 -44.499C113.999 -80.3558 182.286 -45.408 247.132 -43.8789Z" stroke="#B9BCC7"/>
<path fill-rule="evenodd" clip-rule="evenodd" d="M255.29 -51.2581C329.55 -49.507 410.866 -88.0582 469.468 -42.414C534.453 8.20128 558.852 98.1604 552.574 180.291C546.205 263.62 511.28 354.681 436.297 391.583C367.051 425.662 295.226 353.655 218.573 344.669C145.858 336.144 60.9077 391.178 7.32108 341.292C-47.1326 290.599 -25.8528 201.229 -14.486 127.705C-4.02095 60.0137 11.0273 -14.014 68.1052 -51.8782C122.157 -87.735 190.444 -52.7871 255.29 -51.2581Z" stroke="#B9BCC7"/>
<path fill-rule="evenodd" clip-rule="evenodd" d="M263.448 -58.637C337.708 -56.8859 419.024 -95.4372 477.626 -49.7929C542.611 0.822377 567.01 90.7815 560.732 172.912C554.363 256.241 519.438 347.302 444.455 384.204C375.209 418.284 303.384 346.276 226.731 337.29C154.016 328.765 69.0657 383.799 15.479 333.913C-38.9747 283.22 -17.6948 193.85 -6.32802 120.326C4.13701 52.6348 19.1852 -21.3929 76.2632 -59.2571C130.315 -95.1139 198.602 -60.1661 263.448 -58.637Z" stroke="#B9BCC7"/>
<path fill-rule="evenodd" clip-rule="evenodd" d="M271.605 -66.0159C345.866 -64.2648 427.181 -102.816 485.784 -57.1718C550.768 -6.55653 575.167 83.4026 568.89 165.534C562.521 248.862 527.596 339.923 452.613 376.825C383.367 410.905 311.542 338.897 234.889 329.911C162.174 321.386 77.2234 376.42 23.6368 326.534C-30.817 275.841 -9.53712 186.471 1.8297 112.947C12.2947 45.2559 27.3429 -28.7718 84.4209 -66.636C138.473 -102.493 206.76 -67.545 271.605 -66.0159Z" stroke="#B9BCC7"/>
<path fill-rule="evenodd" clip-rule="evenodd" d="M279.763 -73.395C354.023 -71.644 435.339 -110.195 493.942 -64.551C558.926 -13.9357 583.325 76.0234 577.048 158.154C570.679 241.483 535.754 332.544 460.771 369.446C391.525 403.525 319.7 331.518 243.047 322.532C170.332 314.007 85.3813 369.041 31.7947 319.155C-22.659 268.462 -1.37916 179.092 9.98766 105.568C20.4527 37.8767 35.5009 -36.151 92.5788 -74.0151C146.631 -109.872 214.917 -74.9241 279.763 -73.395Z" stroke="#B9BCC7"/>
<path fill-rule="evenodd" clip-rule="evenodd" d="M287.921 -80.7739C362.181 -79.0229 443.497 -117.574 502.099 -71.9299C567.084 -21.3146 591.483 68.6445 585.206 150.775C578.837 234.104 543.912 325.165 468.929 362.067C399.683 396.147 327.858 324.139 251.205 315.153C178.49 306.628 93.5391 361.662 39.9524 311.776C-14.5013 261.083 6.77855 171.713 18.1454 98.1888C28.6104 30.4978 43.6586 -43.5299 100.737 -81.3941C154.789 -117.251 223.075 -82.303 287.921 -80.7739Z" stroke="#B9BCC7"/>
<path fill-rule="evenodd" clip-rule="evenodd" d="M296.079 -88.1531C370.339 -86.402 451.655 -124.953 510.257 -79.309C575.242 -28.6937 599.641 61.2654 593.364 143.396C586.995 226.725 552.07 317.786 477.087 354.688C407.841 388.767 336.015 316.76 259.363 307.773C186.648 299.249 101.697 354.283 48.1104 304.397C-6.34334 253.704 14.9365 164.334 26.3033 90.8097C36.7684 23.1187 51.8166 -50.909 108.895 -88.7732C162.947 -124.63 231.233 -89.6822 296.079 -88.1531Z" stroke="#B9BCC7"/>
<path fill-rule="evenodd" clip-rule="evenodd" d="M304.237 -95.532C378.497 -93.7809 459.813 -132.332 518.415 -86.6879C583.4 -36.0726 607.799 53.8865 601.521 136.017C595.152 219.346 560.228 310.407 485.244 347.309C415.998 381.389 344.173 309.381 267.52 300.395C194.805 291.87 109.855 346.904 56.2681 297.018C1.81437 246.325 23.0942 156.955 34.461 83.4308C44.9261 15.7398 59.9743 -58.288 117.052 -96.1521C171.104 -132.009 239.391 -97.0611 304.237 -95.532Z" stroke="#B9BCC7"/>
<path fill-rule="evenodd" clip-rule="evenodd" d="M312.395 -102.911C386.655 -101.16 467.971 -139.711 526.573 -94.0671C591.558 -43.4518 615.957 46.5073 609.679 128.638C603.31 211.967 568.385 303.028 493.402 339.93C424.156 374.009 352.331 302.002 275.678 293.015C202.963 284.491 118.013 339.525 64.4261 289.639C9.97233 238.946 31.2522 149.576 42.619 76.0516C53.084 8.36063 68.1322 -65.6671 125.21 -103.531C179.262 -139.388 247.549 -104.44 312.395 -102.911Z" stroke="#B9BCC7"/>
<path fill-rule="evenodd" clip-rule="evenodd" d="M320.552 -110.29C394.813 -108.539 476.128 -147.09 534.731 -101.446C599.715 -50.8307 624.114 39.1284 617.837 121.259C611.468 204.588 576.543 295.649 501.56 332.551C432.314 366.63 360.489 294.623 283.836 285.637C211.121 277.112 126.17 332.146 72.5838 282.26C18.13 231.567 39.4099 142.197 50.7767 68.6727C61.2417 0.981728 76.29 -73.046 133.368 -110.91C187.42 -146.767 255.707 -111.819 320.552 -110.29Z" stroke="#B9BCC7"/>
<path fill-rule="evenodd" clip-rule="evenodd" d="M328.71 -117.669C402.97 -115.918 484.286 -154.469 542.889 -108.825C607.873 -58.2098 632.272 31.7493 625.995 113.88C619.626 197.209 584.701 288.27 509.718 325.172C440.472 359.251 368.647 287.244 291.994 278.257C219.279 269.733 134.328 324.767 80.7417 274.881C26.288 224.188 47.5679 134.818 58.9347 61.2936C69.3997 -6.39742 84.4479 -80.4252 141.526 -118.289C195.578 -154.146 263.864 -119.198 328.71 -117.669Z" stroke="#B9BCC7"/>
<path fill-rule="evenodd" clip-rule="evenodd" d="M336.868 -125.048C411.128 -123.297 492.444 -161.848 551.046 -116.204C616.031 -65.5888 640.43 24.3704 634.153 106.501C627.784 189.83 592.859 280.891 517.876 317.793C448.63 351.872 376.805 279.865 300.152 270.878C227.437 262.354 142.486 317.388 88.8995 267.502C34.4457 216.809 55.7256 127.439 67.0924 53.9147C77.5574 -13.7763 92.6056 -87.8041 149.684 -125.668C203.736 -161.525 272.022 -126.577 336.868 -125.048Z" stroke="#B9BCC7"/>
<path fill-rule="evenodd" clip-rule="evenodd" d="M345.026 -132.427C419.286 -130.676 500.602 -169.227 559.204 -123.583C624.189 -72.9677 648.588 16.9914 642.311 99.1224C635.942 182.451 601.017 273.512 526.034 310.414C456.788 344.493 384.962 272.486 308.31 263.5C235.595 254.975 150.644 310.009 97.0574 260.123C42.6037 209.43 63.8835 120.06 75.2504 46.5358C85.7154 -21.1552 100.764 -95.183 157.842 -133.047C211.894 -168.904 280.18 -133.956 345.026 -132.427Z" stroke="#B9BCC7"/>
<path fill-rule="evenodd" clip-rule="evenodd" d="M353.184 -139.806C427.444 -138.055 508.76 -176.606 567.362 -130.962C632.347 -80.3468 656.746 9.6123 650.468 91.7433C644.1 175.072 609.175 266.133 534.191 303.035C464.945 337.114 393.12 265.107 316.467 256.12C243.752 247.596 158.802 302.63 105.215 252.744C50.7614 202.051 72.0412 112.681 83.4081 39.1566C93.8731 -28.5344 108.921 -102.562 165.999 -140.426C220.051 -176.283 288.338 -141.335 353.184 -139.806Z" stroke="#B9BCC7"/>
<path fill-rule="evenodd" clip-rule="evenodd" d="M361.342 -147.185C435.602 -145.434 516.918 -183.985 575.52 -138.341C640.505 -87.7257 664.904 2.23339 658.626 84.3644C652.257 167.693 617.332 258.754 542.349 295.656C473.103 329.735 401.278 257.728 324.625 248.742C251.91 240.217 166.96 295.251 113.373 245.365C58.9194 194.672 80.1992 105.302 91.566 31.7777C102.031 -35.9133 117.079 -109.941 174.157 -147.805C228.209 -183.662 296.496 -148.714 361.342 -147.185Z" stroke="#B9BCC7"/>
<path fill-rule="evenodd" clip-rule="evenodd" d="M369.499 -154.564C443.76 -152.813 525.075 -191.364 583.678 -145.72C648.662 -95.1049 673.061 -5.14576 666.784 76.9852C660.415 160.314 625.49 251.375 550.507 288.277C481.261 322.356 409.436 250.349 332.783 241.362C260.068 232.838 175.117 287.872 121.531 237.986C67.0771 187.293 88.3569 97.9226 99.7237 24.3985C110.189 -43.2924 125.237 -117.32 182.315 -155.184C236.367 -191.041 304.654 -156.093 369.499 -154.564Z" stroke="#B9BCC7"/>
<path fill-rule="evenodd" clip-rule="evenodd" d="M377.657 -161.943C451.917 -160.192 533.233 -198.743 591.835 -153.099C656.82 -102.484 681.219 -12.5247 674.942 69.6063C668.573 152.935 633.648 243.996 558.665 280.898C489.419 314.977 417.594 242.97 340.941 233.983C268.226 225.459 183.275 280.493 129.689 230.607C75.2348 179.914 96.5146 90.5437 107.881 17.0196C118.346 -50.6713 133.395 -124.699 190.473 -162.563C244.525 -198.42 312.811 -163.472 377.657 -161.943Z" stroke="#B9BCC7"/>
<path fill-rule="evenodd" clip-rule="evenodd" d="M385.815 -169.322C460.075 -167.571 541.391 -206.122 599.993 -160.478C664.978 -109.863 689.377 -19.9038 683.1 62.2272C676.731 145.556 641.806 236.616 566.823 273.519C497.577 307.598 425.752 235.591 349.099 226.604C276.384 218.08 191.433 273.114 137.846 223.228C83.3927 172.535 104.673 83.1646 116.039 9.64049C126.504 -58.0505 141.553 -132.078 198.631 -169.942C252.683 -205.799 320.969 -170.851 385.815 -169.322Z" stroke="#B9BCC7"/>
<path fill-rule="evenodd" clip-rule="evenodd" d="M393.973 -176.701C468.233 -174.95 549.549 -213.501 608.151 -167.857C673.136 -117.242 697.535 -27.2827 691.257 54.8483C684.889 138.177 649.964 229.238 574.981 266.14C505.734 300.219 433.909 228.212 357.256 219.225C284.541 210.701 199.591 265.735 146.004 215.849C91.5505 165.156 112.83 75.7857 124.197 2.26158C134.662 -65.4294 149.71 -139.457 206.788 -177.321C260.84 -213.178 329.127 -178.23 393.973 -176.701Z" stroke="#B9BCC7"/>
<path fill-rule="evenodd" clip-rule="evenodd" d="M402.131 -184.08C476.391 -182.329 557.707 -220.881 616.309 -175.236C681.294 -124.621 705.693 -34.6619 699.415 47.4691C693.047 130.798 658.122 221.858 583.139 258.761C513.892 292.84 442.067 220.833 365.414 211.846C292.699 203.322 207.749 258.356 154.162 208.47C99.7084 157.777 120.988 68.4065 132.355 -5.11757C142.82 -72.8086 157.868 -146.836 214.946 -184.7C268.998 -220.557 337.285 -185.609 402.131 -184.08Z" stroke="#B9BCC7"/>
<path fill-rule="evenodd" clip-rule="evenodd" d="M410.289 -191.459C484.549 -189.708 565.864 -228.259 624.467 -182.615C689.451 -132 713.85 -42.0408 707.573 40.0902C701.204 123.419 666.279 214.479 591.296 251.382C522.05 285.461 450.225 213.454 373.572 204.467C300.857 195.943 215.906 250.977 162.32 201.091C107.866 150.398 129.146 61.0276 140.513 -12.4965C150.978 -80.1875 166.026 -154.215 223.104 -192.079C277.156 -227.936 345.443 -192.988 410.289 -191.459Z" stroke="#B9BCC7"/>
<path fill-rule="evenodd" clip-rule="evenodd" d="M418.446 -198.838C492.707 -197.087 574.022 -235.639 632.625 -189.994C697.609 -139.379 722.008 -49.4199 715.731 32.711C709.362 116.04 674.437 207.1 599.454 244.003C530.208 278.082 458.383 206.075 381.73 197.088C309.015 188.563 224.064 243.598 170.478 193.712C116.024 143.019 137.304 53.6485 148.671 -19.8756C159.136 -87.5666 174.184 -161.594 231.262 -199.459C285.314 -235.315 353.601 -200.367 418.446 -198.838Z" stroke="#B9BCC7"/>
<path fill-rule="evenodd" clip-rule="evenodd" d="M426.604 -206.217C500.864 -204.466 582.18 -243.017 640.782 -197.373C705.767 -146.758 730.166 -56.7988 723.889 25.3321C717.52 108.661 682.595 199.721 607.612 236.624C538.366 270.703 466.541 198.696 389.888 189.709C317.173 181.185 232.222 236.219 178.636 186.333C124.182 135.64 145.462 46.2696 156.828 -27.2545C167.294 -94.9455 182.342 -168.973 239.42 -206.837C293.472 -242.694 361.758 -207.746 426.604 -206.217Z" stroke="#B9BCC7"/>
<path fill-rule="evenodd" clip-rule="evenodd" d="M434.762 -213.596C509.022 -211.845 590.338 -250.396 648.94 -204.752C713.925 -154.137 738.324 -64.1777 732.047 17.9532C725.678 101.282 690.753 192.343 615.77 229.245C546.524 263.324 474.699 191.317 398.046 182.33C325.331 173.806 240.38 228.84 186.793 178.954C132.34 128.261 153.62 38.8907 164.986 -34.6334C175.451 -102.324 190.5 -176.352 247.578 -214.216C301.63 -250.073 369.916 -215.125 434.762 -213.596Z" stroke="#B9BCC7"/>
<path fill-rule="evenodd" clip-rule="evenodd" d="M442.92 -220.975C517.18 -219.224 598.496 -257.776 657.098 -212.131C722.083 -161.516 746.482 -71.5569 740.204 10.5741C733.836 93.9029 698.911 184.963 623.928 221.866C554.681 255.945 482.856 183.938 406.203 174.951C333.488 166.427 248.538 221.461 194.951 171.575C140.497 120.882 161.777 31.5115 173.144 -42.0126C183.609 -109.704 198.657 -183.731 255.735 -221.595C309.787 -257.452 378.074 -222.504 442.92 -220.975Z" stroke="#B9BCC7"/>
<path fill-rule="evenodd" clip-rule="evenodd" d="M451.078 -228.354C525.338 -226.603 606.654 -265.154 665.256 -219.51C730.241 -168.895 754.64 -78.9358 748.362 3.19518C741.994 86.524 707.069 177.584 632.086 214.487C562.839 248.566 491.014 176.559 414.361 167.572C341.646 159.048 256.696 214.082 203.109 164.196C148.655 113.503 169.935 24.1326 181.302 -49.3915C191.767 -117.082 206.815 -191.11 263.893 -228.974C317.945 -264.831 386.232 -229.883 451.078 -228.354Z" stroke="#B9BCC7"/>
<path fill-rule="evenodd" clip-rule="evenodd" d="M459.236 -235.733C533.496 -233.982 614.812 -272.534 673.414 -226.889C738.398 -176.274 762.797 -86.3149 756.52 -4.18397C750.151 79.1449 715.226 170.205 640.243 207.108C570.997 241.187 499.172 169.18 422.519 160.193C349.804 151.668 264.854 206.703 211.267 156.817C156.813 106.124 178.093 16.7534 189.46 -56.7706C199.925 -124.462 214.973 -198.489 272.051 -236.354C326.103 -272.21 394.39 -237.262 459.236 -235.733Z" stroke="#B9BCC7"/>
</g>
</svg>
