<svg width="550" height="566" viewBox="0 0 550 566" fill="none" xmlns="http://www.w3.org/2000/svg">
<path fill-rule="evenodd" clip-rule="evenodd" d="M327.224 -27.387C369.957 -108 493.215 -101.596 583.292 -88.3168C667.747 -75.8662 740.257 -26.1912 792.38 41.1879C842.168 105.548 877.524 187.569 858.031 266.836C840.176 339.441 749.415 358.106 700.499 414.807C631.172 495.167 624.041 662.651 518.137 660.823C268.119 656.508 422.323 348.346 414.328 230.426C407.942 136.244 282.902 56.2253 327.224 -27.387Z" stroke="#FFEAEA"/>
<path fill-rule="evenodd" clip-rule="evenodd" d="M337.171 -26.3545C379.904 -106.968 503.161 -100.564 593.239 -87.2844C677.693 -74.8337 750.204 -25.1587 802.327 42.2204C852.114 106.58 887.471 188.601 867.977 267.868C850.122 340.473 759.361 359.138 710.445 415.84C641.118 496.2 633.988 663.684 528.084 661.856C278.065 657.54 432.27 349.379 424.274 231.458C417.888 137.276 292.848 57.2578 337.171 -26.3545Z" stroke="#FFEAEA"/>
<path fill-rule="evenodd" clip-rule="evenodd" d="M347.118 -25.3223C389.851 -105.935 513.108 -99.5316 603.185 -86.2521C687.64 -73.8015 760.15 -24.1265 812.273 43.2526C862.061 107.613 897.418 189.634 877.924 268.901C860.069 341.505 769.308 360.17 720.392 416.872C651.065 497.232 643.935 664.716 538.031 662.888C288.012 658.572 442.216 350.411 434.221 232.49C427.835 138.309 302.795 58.29 347.118 -25.3223Z" stroke="#FFEAEA"/>
<path fill-rule="evenodd" clip-rule="evenodd" d="M357.064 -24.2898C399.797 -104.903 523.055 -98.4992 613.132 -85.2197C697.587 -72.7691 770.097 -23.094 822.22 44.2851C872.008 108.645 907.364 190.666 887.871 269.933C870.016 342.538 779.255 361.203 730.338 417.904C661.012 498.264 653.881 665.749 547.977 663.921C297.958 659.605 452.163 351.443 444.167 233.523C437.781 139.341 312.742 59.3225 357.064 -24.2898Z" stroke="#FFEAEA"/>
<path fill-rule="evenodd" clip-rule="evenodd" d="M367.011 -23.2573C409.744 -103.87 533.001 -97.4667 623.078 -84.1872C707.533 -71.7366 780.043 -22.0615 832.167 45.3176C881.954 109.678 917.311 191.699 897.817 270.965C879.962 343.57 789.201 362.235 740.285 418.937C670.958 499.297 663.828 666.781 557.924 664.953C307.905 660.637 462.11 352.476 454.114 234.555C447.728 140.374 322.688 60.3549 367.011 -23.2573Z" stroke="#FFEAEA"/>
<path fill-rule="evenodd" clip-rule="evenodd" d="M376.957 -22.2251C419.69 -102.838 542.948 -96.4345 633.025 -83.155C717.48 -70.7044 789.99 -21.0293 842.113 46.3498C891.901 110.71 927.257 192.731 907.764 271.998C889.909 344.602 799.148 363.268 750.232 419.969C680.905 500.329 673.774 667.813 567.87 665.985C317.851 661.67 472.056 353.508 464.06 235.588C457.674 141.406 332.635 61.3872 376.957 -22.2251Z" stroke="#FFEAEA"/>
<path fill-rule="evenodd" clip-rule="evenodd" d="M386.904 -21.1926C429.637 -101.806 552.894 -95.402 642.972 -82.1225C727.426 -69.6719 799.937 -19.9968 852.06 47.3823C901.847 111.742 937.204 193.763 917.71 273.03C899.855 345.635 809.094 364.3 760.178 421.001C690.851 501.361 683.721 668.846 577.817 667.018C327.798 662.702 482.003 354.541 474.007 236.62C467.621 142.438 342.581 62.4196 386.904 -21.1926Z" stroke="#FFEAEA"/>
<path fill-rule="evenodd" clip-rule="evenodd" d="M396.85 -20.1602C439.583 -100.773 562.841 -94.3695 652.918 -81.09C737.373 -68.6394 809.883 -18.9644 862.006 48.4147C911.794 112.775 947.15 194.796 927.657 274.063C909.802 346.667 819.041 365.333 770.125 422.034C700.798 502.394 693.667 669.878 587.763 668.05C337.745 663.735 491.949 355.573 483.954 237.652C477.567 143.471 352.528 63.4521 396.85 -20.1602Z" stroke="#FFEAEA"/>
<path fill-rule="evenodd" clip-rule="evenodd" d="M406.797 -19.1279C449.53 -99.7409 572.787 -93.3373 662.865 -80.0578C747.319 -67.6072 819.83 -17.9321 871.953 49.447C921.74 113.807 957.097 195.828 937.603 275.095C919.748 347.7 828.987 366.365 780.071 423.066C710.744 503.426 703.614 670.91 597.71 669.082C347.691 664.767 501.896 356.605 493.9 238.685C487.514 144.503 362.474 64.4843 406.797 -19.1279Z" stroke="#FFEAEA"/>
<path fill-rule="evenodd" clip-rule="evenodd" d="M416.744 -18.0955C459.476 -98.7085 582.734 -92.3048 672.811 -79.0253C757.266 -66.5747 829.776 -16.8997 881.899 50.4794C931.687 114.84 967.043 196.86 947.55 276.127C929.695 348.732 838.934 367.397 790.018 424.099C720.691 504.459 713.56 671.943 607.656 670.115C357.638 665.799 511.842 357.638 503.847 239.717C497.461 145.535 372.421 65.5168 416.744 -18.0955Z" stroke="#FFEAEA"/>
<path fill-rule="evenodd" clip-rule="evenodd" d="M426.69 -17.063C469.423 -97.676 592.681 -91.2724 682.758 -77.9929C767.213 -65.5422 839.723 -15.8672 891.846 51.5119C941.634 115.872 976.99 197.893 957.497 277.16C939.642 349.765 848.881 368.43 799.964 425.131C730.638 505.491 723.507 672.975 617.603 671.147C367.584 666.832 521.789 358.67 513.793 240.75C507.407 146.568 382.368 66.5493 426.69 -17.063Z" stroke="#FFEAEA"/>
<path fill-rule="evenodd" clip-rule="evenodd" d="M436.637 -16.0305C479.37 -96.6435 602.627 -90.2399 692.704 -76.9604C777.159 -64.5098 849.669 -14.8347 901.792 52.5444C951.58 116.904 986.937 198.925 967.443 278.192C949.588 350.797 858.827 369.462 809.911 426.164C740.584 506.524 733.454 674.008 627.55 672.18C377.531 667.864 531.736 359.703 523.74 241.782C517.354 147.6 392.314 67.5817 436.637 -16.0305Z" stroke="#FFEAEA"/>
<path fill-rule="evenodd" clip-rule="evenodd" d="M446.583 -14.9983C489.316 -95.6113 612.574 -89.2077 702.651 -75.9282C787.106 -63.4775 859.616 -13.8025 911.739 53.5766C961.527 117.937 996.883 199.958 977.39 279.225C959.535 351.829 868.774 370.494 819.857 427.196C750.531 507.556 743.4 675.04 637.496 673.212C387.477 668.896 541.682 360.735 533.686 242.814C527.3 148.633 402.261 68.614 446.583 -14.9983Z" stroke="#FFEAEA"/>
<path fill-rule="evenodd" clip-rule="evenodd" d="M456.53 -13.9658C499.263 -94.5788 622.52 -88.1752 712.597 -74.8957C797.052 -62.4451 869.562 -12.77 921.686 54.6091C971.473 118.969 1006.83 200.99 987.336 280.257C969.481 352.862 878.72 371.527 829.804 428.228C760.477 508.588 753.347 676.073 647.443 674.245C397.424 669.929 551.629 361.767 543.633 243.847C537.247 149.665 412.207 69.6464 456.53 -13.9658Z" stroke="#FFEAEA"/>
<path fill-rule="evenodd" clip-rule="evenodd" d="M466.476 -12.9334C509.209 -93.5464 632.467 -87.1427 722.544 -73.8632C806.999 -61.4126 879.509 -11.7375 931.632 55.6415C981.42 120.002 1016.78 202.023 997.283 281.289C979.428 353.894 888.667 372.559 839.751 429.261C770.424 509.621 763.293 677.105 657.389 675.277C407.371 670.961 561.575 362.8 553.579 244.879C547.193 150.698 422.154 70.6789 466.476 -12.9334Z" stroke="#FFEAEA"/>
<path fill-rule="evenodd" clip-rule="evenodd" d="M476.423 -11.9011C519.156 -92.5141 642.413 -86.1105 732.491 -72.831C816.945 -60.3804 889.456 -10.7053 941.579 56.6738C991.366 121.034 1026.72 203.055 1007.23 282.322C989.374 354.926 898.613 373.592 849.697 430.293C780.37 510.653 773.24 678.137 667.336 676.309C417.317 671.994 571.522 363.832 563.526 245.911C557.14 151.73 432.1 71.7111 476.423 -11.9011Z" stroke="#FFEAEA"/>
<path fill-rule="evenodd" clip-rule="evenodd" d="M486.369 -10.8687C529.102 -91.4817 652.36 -85.078 742.437 -71.7985C826.892 -59.3479 899.402 -9.67285 951.525 57.7062C1001.31 122.066 1036.67 204.087 1017.18 283.354C999.321 355.959 908.56 374.624 859.644 431.325C790.317 511.685 783.186 679.17 677.282 677.342C427.264 673.026 581.468 364.865 573.473 246.944C567.087 152.762 442.047 72.7436 486.369 -10.8687Z" stroke="#FFEAEA"/>
<path fill-rule="evenodd" clip-rule="evenodd" d="M496.316 -9.83619C539.049 -90.4492 662.307 -84.0456 752.384 -70.7661C836.839 -58.3154 909.349 -8.64038 961.472 58.7387C1011.26 123.099 1046.62 205.12 1027.12 284.387C1009.27 356.991 918.507 375.657 869.59 432.358C800.264 512.718 793.133 680.202 687.229 678.374C437.21 674.059 591.415 365.897 583.419 247.976C577.033 153.795 451.994 73.7761 496.316 -9.83619Z" stroke="#FFEAEA"/>
<path fill-rule="evenodd" clip-rule="evenodd" d="M506.263 -8.80396C548.996 -89.417 672.253 -83.0133 762.33 -69.7338C846.785 -57.2832 919.295 -7.60815 971.418 59.7709C1021.21 124.131 1056.56 206.152 1037.07 285.419C1019.21 358.024 928.453 376.689 879.537 433.39C810.21 513.75 803.08 681.234 697.176 679.406C447.157 675.091 601.361 366.929 593.366 249.009C586.98 154.827 461.94 74.8083 506.263 -8.80396Z" stroke="#FFEAEA"/>
<path fill-rule="evenodd" clip-rule="evenodd" d="M516.209 -7.77149C558.942 -88.3845 682.2 -81.9809 772.277 -68.7014C856.732 -56.2507 929.242 -6.57568 981.365 60.8034C1031.15 125.163 1066.51 207.184 1047.02 286.451C1029.16 359.056 938.4 377.721 889.483 434.423C820.157 514.783 813.026 682.267 707.122 680.439C457.103 676.123 611.308 367.962 603.312 250.041C596.926 155.859 471.887 75.8408 516.209 -7.77149Z" stroke="#FFEAEA"/>
<path fill-rule="evenodd" clip-rule="evenodd" d="M526.156 -6.73902C568.889 -87.352 692.146 -80.9484 782.223 -67.6689C866.678 -55.2183 939.188 -5.54321 991.312 61.8359C1041.1 126.196 1076.46 208.217 1056.96 287.484C1039.11 360.089 948.346 378.754 899.43 435.455C830.103 515.815 822.973 683.299 717.069 681.471C467.05 677.156 621.255 368.994 613.259 251.074C606.873 156.892 481.833 76.8732 526.156 -6.73902Z" stroke="#FFEAEA"/>
<path fill-rule="evenodd" clip-rule="evenodd" d="M536.102 -5.7068C578.835 -86.3198 702.093 -79.9162 792.17 -66.6367C876.625 -54.186 949.135 -4.51098 1001.26 62.8681C1051.05 127.228 1086.4 209.249 1066.91 288.516C1049.05 361.121 958.293 379.786 909.377 436.487C840.05 516.847 832.919 684.332 727.015 682.504C476.997 678.188 631.201 370.026 623.205 252.106C616.819 157.924 491.78 77.9055 536.102 -5.7068Z" stroke="#FFEAEA"/>
<path fill-rule="evenodd" clip-rule="evenodd" d="M546.049 -4.67432C588.782 -85.2873 712.039 -78.8837 802.117 -65.6042C886.571 -53.1536 959.082 -3.47851 1011.2 63.9006C1060.99 128.261 1096.35 210.282 1076.86 289.548C1059 362.153 968.239 380.818 919.323 437.52C849.996 517.88 842.866 685.364 736.962 683.536C486.943 679.22 641.148 371.059 633.152 253.138C626.766 158.957 501.726 78.9379 546.049 -4.67432Z" stroke="#FFEAEA"/>
<path fill-rule="evenodd" clip-rule="evenodd" d="M555.995 -3.64185C598.728 -84.2549 721.986 -77.8512 812.063 -64.5717C896.518 -52.1211 969.028 -2.44604 1021.15 64.933C1070.94 129.293 1106.3 211.314 1086.8 290.581C1068.95 363.186 978.186 381.851 929.27 438.552C859.943 518.912 852.812 686.397 746.908 684.569C496.89 680.253 651.094 372.091 643.099 254.171C636.713 159.989 511.673 79.9704 555.995 -3.64185Z" stroke="#FFEAEA"/>
<path fill-rule="evenodd" clip-rule="evenodd" d="M565.942 -2.60963C608.675 -83.2226 731.932 -76.819 822.01 -63.5395C906.464 -51.0889 978.975 -1.41381 1031.1 65.9653C1080.89 130.325 1116.24 212.346 1096.75 291.613C1078.89 364.218 988.132 382.883 939.216 439.584C869.889 519.944 862.759 687.429 756.855 685.601C506.836 681.285 661.041 373.124 653.045 255.203C646.659 161.021 521.619 81.0026 565.942 -2.60963Z" stroke="#FFEAEA"/>
<path fill-rule="evenodd" clip-rule="evenodd" d="M575.889 -1.57716C618.622 -82.1902 741.879 -75.7865 831.956 -62.507C916.411 -50.0564 988.921 -0.381344 1041.04 66.9977C1090.83 131.358 1126.19 213.379 1106.7 292.646C1088.84 365.25 998.079 383.916 949.163 440.617C879.836 520.977 872.706 688.461 766.802 686.633C516.783 682.318 670.987 374.156 662.992 256.235C656.606 162.054 531.566 82.0351 575.889 -1.57716Z" stroke="#FFEAEA"/>
<path fill-rule="evenodd" clip-rule="evenodd" d="M585.835 -0.544686C628.568 -81.1577 751.826 -74.7541 841.903 -61.4746C926.358 -49.0239 998.868 0.651127 1050.99 68.0302C1100.78 132.39 1136.14 214.411 1116.64 293.678C1098.79 366.283 1008.03 384.948 959.109 441.649C889.783 522.009 882.652 689.494 776.748 687.666C526.729 683.35 680.934 375.189 672.938 257.268C666.552 163.086 541.513 83.0676 585.835 -0.544686Z" stroke="#FFEAEA"/>
<path fill-rule="evenodd" clip-rule="evenodd" d="M595.782 0.487541C638.515 -80.1255 761.772 -73.7218 851.849 -60.4423C936.304 -47.9917 1008.81 1.68335 1060.94 69.0624C1110.73 133.423 1146.08 215.443 1126.59 294.71C1108.73 367.315 1017.97 385.98 969.056 442.682C899.729 523.042 892.599 690.526 786.695 688.698C536.676 684.382 690.881 376.221 682.885 258.3C676.499 164.119 551.459 84.0998 595.782 0.487541Z" stroke="#FFEAEA"/>
<path fill-rule="evenodd" clip-rule="evenodd" d="M605.728 1.52001C648.461 -79.093 771.719 -72.6894 861.796 -59.4099C946.251 -46.9592 1018.76 2.71582 1070.88 70.0949C1120.67 134.455 1156.03 216.476 1136.53 295.743C1118.68 368.348 1027.92 387.013 979.002 443.714C909.676 524.074 902.545 691.558 796.641 689.73C546.622 685.415 700.827 377.253 692.831 259.333C686.445 165.151 561.406 85.1323 605.728 1.52001Z" stroke="#FFEAEA"/>
<path fill-rule="evenodd" clip-rule="evenodd" d="M615.675 2.55248C658.408 -78.0605 781.665 -71.6569 871.743 -58.3774C956.197 -45.9268 1028.71 3.74829 1080.83 71.1274C1130.62 135.487 1165.97 217.508 1146.48 296.775C1128.63 369.38 1037.87 388.045 988.949 444.747C919.622 525.107 912.492 692.591 806.588 690.763C556.569 686.447 710.774 378.286 702.778 260.365C696.392 166.183 571.352 86.1647 615.675 2.55248Z" stroke="#FFEAEA"/>
<path fill-rule="evenodd" clip-rule="evenodd" d="M625.621 3.58495C668.354 -77.0281 791.612 -70.6244 881.689 -57.3449C966.144 -44.8943 1038.65 4.78077 1090.78 72.1599C1140.56 136.52 1175.92 218.541 1156.43 297.808C1138.57 370.412 1047.81 389.078 998.896 445.779C929.569 526.139 922.438 693.623 816.534 691.795C566.516 687.48 720.72 379.318 712.724 261.398C706.338 167.216 581.299 87.1972 625.621 3.58495Z" stroke="#FFEAEA"/>
<path fill-rule="evenodd" clip-rule="evenodd" d="M635.568 4.61718C678.301 -75.9958 801.558 -69.5922 891.636 -56.3127C976.09 -43.8621 1048.6 5.81299 1100.72 73.1921C1150.51 137.552 1185.87 219.573 1166.37 298.84C1148.52 371.445 1057.76 390.11 1008.84 446.811C939.515 527.171 932.385 694.656 826.481 692.828C576.462 688.512 730.667 380.35 722.671 262.43C716.285 168.248 591.245 88.2294 635.568 4.61718Z" stroke="#FFEAEA"/>
<path fill-rule="evenodd" clip-rule="evenodd" d="M645.515 5.64965C688.247 -74.9634 811.505 -68.5597 901.582 -55.2802C986.037 -42.8296 1058.55 6.84546 1110.67 74.2246C1160.46 138.585 1195.81 220.606 1176.32 299.872C1158.47 372.477 1067.7 391.142 1018.79 447.844C949.462 528.204 942.331 695.688 836.427 693.86C586.409 689.544 740.613 381.383 732.618 263.462C726.232 169.281 601.192 89.2619 645.515 5.64965Z" stroke="#FFEAEA"/>
</svg>
