<svg width="263" height="271" viewBox="0 0 263 271" fill="none" xmlns="http://www.w3.org/2000/svg">
<mask id="mask0_1_118" style="mask-type:alpha" maskUnits="userSpaceOnUse" x="0" y="0" width="263" height="271">
<path d="M0 0H239C252.255 0 263 10.7452 263 24V247C263 260.255 252.255 271 239 271H0V0Z" fill="#EEF0F2"/>
</mask>
<g mask="url(#mask0_1_118)">
<path fill-rule="evenodd" clip-rule="evenodd" d="M384.646 -86.6757C438.544 -35.5619 524.711 -9.60406 537.552 63.5582C551.792 144.688 509.541 227.771 449.791 284.47C389.169 341.996 302.182 386.1 221.818 363.168C147.603 341.99 142.64 240.406 91.821 182.321C43.6127 127.221 -56.3066 111.049 -62.5831 38.1055C-68.9612 -36.0182 6.77178 -88.0221 64.523 -134.924C117.693 -178.105 178.512 -222.911 246.242 -212.703C310.382 -203.036 337.581 -131.31 384.646 -86.6757Z" stroke="#B9BCC7"/>
<path fill-rule="evenodd" clip-rule="evenodd" d="M395.646 -86.6757C449.544 -35.5619 535.711 -9.60406 548.552 63.5582C562.792 144.688 520.541 227.771 460.791 284.47C400.169 341.996 313.182 386.1 232.818 363.168C158.603 341.99 153.64 240.406 102.821 182.321C54.6127 127.221 -45.3066 111.049 -51.5831 38.1055C-57.9612 -36.0182 17.7718 -88.0221 75.523 -134.924C128.693 -178.105 189.512 -222.911 257.242 -212.703C321.382 -203.036 348.581 -131.31 395.646 -86.6757Z" stroke="#B9BCC7"/>
<path fill-rule="evenodd" clip-rule="evenodd" d="M406.646 -86.6757C460.544 -35.5619 546.711 -9.60406 559.552 63.5582C573.792 144.688 531.541 227.771 471.791 284.47C411.169 341.996 324.182 386.1 243.818 363.168C169.603 341.99 164.64 240.406 113.821 182.321C65.6127 127.221 -34.3066 111.049 -40.5831 38.1055C-46.9612 -36.0182 28.7718 -88.0221 86.523 -134.924C139.693 -178.105 200.512 -222.911 268.242 -212.703C332.382 -203.036 359.581 -131.31 406.646 -86.6757Z" stroke="#B9BCC7"/>
<path fill-rule="evenodd" clip-rule="evenodd" d="M417.646 -86.6757C471.544 -35.5619 557.711 -9.60406 570.552 63.5582C584.792 144.688 542.541 227.771 482.791 284.47C422.169 341.996 335.182 386.1 254.818 363.168C180.603 341.99 175.64 240.406 124.821 182.321C76.6127 127.221 -23.3066 111.049 -29.5831 38.1055C-35.9612 -36.0182 39.7718 -88.0221 97.523 -134.924C150.693 -178.105 211.512 -222.911 279.242 -212.703C343.382 -203.036 370.581 -131.31 417.646 -86.6757Z" stroke="#B9BCC7"/>
<path fill-rule="evenodd" clip-rule="evenodd" d="M428.646 -86.6757C482.544 -35.5619 568.711 -9.60406 581.552 63.5582C595.792 144.688 553.541 227.771 493.791 284.47C433.169 341.996 346.182 386.1 265.818 363.168C191.603 341.99 186.64 240.406 135.821 182.321C87.6127 127.221 -12.3066 111.049 -18.5831 38.1055C-24.9612 -36.0182 50.7718 -88.0221 108.523 -134.924C161.693 -178.105 222.512 -222.911 290.242 -212.703C354.382 -203.036 381.581 -131.31 428.646 -86.6757Z" stroke="#B9BCC7"/>
<path fill-rule="evenodd" clip-rule="evenodd" d="M439.646 -86.6757C493.544 -35.5619 579.711 -9.60406 592.552 63.5582C606.792 144.688 564.541 227.771 504.791 284.47C444.169 341.996 357.182 386.1 276.818 363.168C202.603 341.99 197.64 240.406 146.821 182.321C98.6127 127.221 -1.30655 111.049 -7.58309 38.1055C-13.9612 -36.0182 61.7718 -88.0221 119.523 -134.924C172.693 -178.105 233.512 -222.911 301.242 -212.703C365.382 -203.036 392.581 -131.31 439.646 -86.6757Z" stroke="#B9BCC7"/>
<path fill-rule="evenodd" clip-rule="evenodd" d="M450.646 -86.6757C504.544 -35.5619 590.711 -9.60406 603.552 63.5582C617.792 144.688 575.541 227.771 515.791 284.47C455.169 341.996 368.182 386.1 287.818 363.168C213.603 341.99 208.64 240.406 157.821 182.321C109.613 127.221 9.69345 111.049 3.41691 38.1055C-2.96119 -36.0182 72.7718 -88.0221 130.523 -134.924C183.693 -178.105 244.512 -222.911 312.242 -212.703C376.382 -203.036 403.581 -131.31 450.646 -86.6757Z" stroke="#B9BCC7"/>
<path fill-rule="evenodd" clip-rule="evenodd" d="M461.646 -86.6757C515.544 -35.5619 601.711 -9.60406 614.552 63.5582C628.792 144.688 586.541 227.771 526.791 284.47C466.169 341.996 379.182 386.1 298.818 363.168C224.603 341.99 219.64 240.406 168.821 182.321C120.613 127.221 20.6934 111.049 14.4169 38.1055C8.03881 -36.0182 83.7718 -88.0221 141.523 -134.924C194.693 -178.105 255.512 -222.911 323.242 -212.703C387.382 -203.036 414.581 -131.31 461.646 -86.6757Z" stroke="#B9BCC7"/>
<path fill-rule="evenodd" clip-rule="evenodd" d="M472.646 -86.6757C526.544 -35.5619 612.711 -9.60406 625.552 63.5582C639.792 144.688 597.541 227.771 537.791 284.47C477.169 341.996 390.182 386.1 309.818 363.168C235.603 341.99 230.64 240.406 179.821 182.321C131.613 127.221 31.6934 111.049 25.4169 38.1055C19.0388 -36.0182 94.7718 -88.0221 152.523 -134.924C205.693 -178.105 266.512 -222.911 334.242 -212.703C398.382 -203.036 425.581 -131.31 472.646 -86.6757Z" stroke="#B9BCC7"/>
<path fill-rule="evenodd" clip-rule="evenodd" d="M483.646 -86.6757C537.544 -35.5619 623.711 -9.60406 636.552 63.5582C650.792 144.688 608.541 227.771 548.791 284.47C488.169 341.996 401.182 386.1 320.818 363.168C246.603 341.99 241.64 240.406 190.821 182.321C142.613 127.221 42.6934 111.049 36.4169 38.1055C30.0388 -36.0182 105.772 -88.0221 163.523 -134.924C216.693 -178.105 277.512 -222.911 345.242 -212.703C409.382 -203.036 436.581 -131.31 483.646 -86.6757Z" stroke="#B9BCC7"/>
<path fill-rule="evenodd" clip-rule="evenodd" d="M494.646 -86.6757C548.544 -35.5619 634.711 -9.60406 647.552 63.5582C661.792 144.688 619.541 227.771 559.791 284.47C499.169 341.996 412.182 386.1 331.818 363.168C257.603 341.99 252.64 240.406 201.821 182.321C153.613 127.221 53.6934 111.049 47.4169 38.1055C41.0388 -36.0182 116.772 -88.0221 174.523 -134.924C227.693 -178.105 288.512 -222.911 356.242 -212.703C420.382 -203.036 447.581 -131.31 494.646 -86.6757Z" stroke="#B9BCC7"/>
<path fill-rule="evenodd" clip-rule="evenodd" d="M505.646 -86.6757C559.544 -35.5619 645.711 -9.60406 658.552 63.5582C672.792 144.688 630.541 227.771 570.791 284.47C510.169 341.996 423.182 386.1 342.818 363.168C268.603 341.99 263.64 240.406 212.821 182.321C164.613 127.221 64.6934 111.049 58.4169 38.1055C52.0388 -36.0182 127.772 -88.0221 185.523 -134.924C238.693 -178.105 299.512 -222.911 367.242 -212.703C431.382 -203.036 458.581 -131.31 505.646 -86.6757Z" stroke="#B9BCC7"/>
<path fill-rule="evenodd" clip-rule="evenodd" d="M516.646 -86.6757C570.544 -35.5619 656.711 -9.60406 669.552 63.5582C683.792 144.688 641.541 227.771 581.791 284.47C521.169 341.996 434.182 386.1 353.818 363.168C279.603 341.99 274.64 240.406 223.821 182.321C175.613 127.221 75.6934 111.049 69.4169 38.1055C63.0388 -36.0182 138.772 -88.0221 196.523 -134.924C249.693 -178.105 310.512 -222.911 378.242 -212.703C442.382 -203.036 469.581 -131.31 516.646 -86.6757Z" stroke="#B9BCC7"/>
<path fill-rule="evenodd" clip-rule="evenodd" d="M527.646 -86.6757C581.544 -35.5619 667.711 -9.60406 680.552 63.5582C694.792 144.688 652.541 227.771 592.791 284.47C532.169 341.996 445.182 386.1 364.818 363.168C290.603 341.99 285.64 240.406 234.821 182.321C186.613 127.221 86.6934 111.049 80.4169 38.1055C74.0388 -36.0182 149.772 -88.0221 207.523 -134.924C260.693 -178.105 321.512 -222.911 389.242 -212.703C453.382 -203.036 480.581 -131.31 527.646 -86.6757Z" stroke="#B9BCC7"/>
<path fill-rule="evenodd" clip-rule="evenodd" d="M538.646 -86.6757C592.544 -35.5619 678.711 -9.60406 691.552 63.5582C705.792 144.688 663.541 227.771 603.791 284.47C543.169 341.996 456.182 386.1 375.818 363.168C301.603 341.99 296.64 240.406 245.821 182.321C197.613 127.221 97.6934 111.049 91.4169 38.1055C85.0388 -36.0182 160.772 -88.0221 218.523 -134.924C271.693 -178.105 332.512 -222.911 400.242 -212.703C464.382 -203.036 491.581 -131.31 538.646 -86.6757Z" stroke="#B9BCC7"/>
<path fill-rule="evenodd" clip-rule="evenodd" d="M549.646 -86.6757C603.544 -35.5619 689.711 -9.60406 702.552 63.5582C716.792 144.688 674.541 227.771 614.791 284.47C554.169 341.996 467.182 386.1 386.818 363.168C312.603 341.99 307.64 240.406 256.821 182.321C208.613 127.221 108.693 111.049 102.417 38.1055C96.0388 -36.0182 171.772 -88.0221 229.523 -134.924C282.693 -178.105 343.512 -222.911 411.242 -212.703C475.382 -203.036 502.581 -131.31 549.646 -86.6757Z" stroke="#B9BCC7"/>
<path fill-rule="evenodd" clip-rule="evenodd" d="M560.646 -86.6757C614.544 -35.5619 700.711 -9.60406 713.552 63.5582C727.792 144.688 685.541 227.771 625.791 284.47C565.169 341.996 478.182 386.1 397.818 363.168C323.603 341.99 318.64 240.406 267.821 182.321C219.613 127.221 119.693 111.049 113.417 38.1055C107.039 -36.0182 182.772 -88.0221 240.523 -134.924C293.693 -178.105 354.512 -222.911 422.242 -212.703C486.382 -203.036 513.581 -131.31 560.646 -86.6757Z" stroke="#B9BCC7"/>
<path fill-rule="evenodd" clip-rule="evenodd" d="M571.646 -86.6757C625.544 -35.5619 711.711 -9.60406 724.552 63.5582C738.792 144.688 696.541 227.771 636.791 284.47C576.169 341.996 489.182 386.1 408.818 363.168C334.603 341.99 329.64 240.406 278.821 182.321C230.613 127.221 130.693 111.049 124.417 38.1055C118.039 -36.0182 193.772 -88.0221 251.523 -134.924C304.693 -178.105 365.512 -222.911 433.242 -212.703C497.382 -203.036 524.581 -131.31 571.646 -86.6757Z" stroke="#B9BCC7"/>
<path fill-rule="evenodd" clip-rule="evenodd" d="M582.646 -86.6757C636.544 -35.5619 722.711 -9.60406 735.552 63.5582C749.792 144.688 707.541 227.771 647.791 284.47C587.169 341.996 500.182 386.1 419.818 363.168C345.603 341.99 340.64 240.406 289.821 182.321C241.613 127.221 141.693 111.049 135.417 38.1055C129.039 -36.0182 204.772 -88.0221 262.523 -134.924C315.693 -178.105 376.512 -222.911 444.242 -212.703C508.382 -203.036 535.581 -131.31 582.646 -86.6757Z" stroke="#B9BCC7"/>
<path fill-rule="evenodd" clip-rule="evenodd" d="M593.646 -86.6757C647.544 -35.5619 733.711 -9.60406 746.552 63.5582C760.792 144.688 718.541 227.771 658.791 284.47C598.169 341.996 511.182 386.1 430.818 363.168C356.603 341.99 351.64 240.406 300.821 182.321C252.613 127.221 152.693 111.049 146.417 38.1055C140.039 -36.0182 215.772 -88.0221 273.523 -134.924C326.693 -178.105 387.512 -222.911 455.242 -212.703C519.382 -203.036 546.581 -131.31 593.646 -86.6757Z" stroke="#B9BCC7"/>
<path fill-rule="evenodd" clip-rule="evenodd" d="M604.646 -86.6757C658.544 -35.5619 744.711 -9.60406 757.552 63.5582C771.792 144.688 729.541 227.771 669.791 284.47C609.169 341.996 522.182 386.1 441.818 363.168C367.603 341.99 362.64 240.406 311.821 182.321C263.613 127.221 163.693 111.049 157.417 38.1055C151.039 -36.0182 226.772 -88.0221 284.523 -134.924C337.693 -178.105 398.512 -222.911 466.242 -212.703C530.382 -203.036 557.581 -131.31 604.646 -86.6757Z" stroke="#B9BCC7"/>
<path fill-rule="evenodd" clip-rule="evenodd" d="M615.646 -86.6757C669.544 -35.5619 755.711 -9.60406 768.552 63.5582C782.792 144.688 740.541 227.771 680.791 284.47C620.169 341.996 533.182 386.1 452.818 363.168C378.603 341.99 373.64 240.406 322.821 182.321C274.613 127.221 174.693 111.049 168.417 38.1055C162.039 -36.0182 237.772 -88.0221 295.523 -134.924C348.693 -178.105 409.512 -222.911 477.242 -212.703C541.382 -203.036 568.581 -131.31 615.646 -86.6757Z" stroke="#B9BCC7"/>
<path fill-rule="evenodd" clip-rule="evenodd" d="M626.646 -86.6757C680.544 -35.5619 766.711 -9.60406 779.552 63.5582C793.792 144.688 751.541 227.771 691.791 284.47C631.169 341.996 544.182 386.1 463.818 363.168C389.603 341.99 384.64 240.406 333.821 182.321C285.613 127.221 185.693 111.049 179.417 38.1055C173.039 -36.0182 248.772 -88.0221 306.523 -134.924C359.693 -178.105 420.512 -222.911 488.242 -212.703C552.382 -203.036 579.581 -131.31 626.646 -86.6757Z" stroke="#B9BCC7"/>
<path fill-rule="evenodd" clip-rule="evenodd" d="M637.646 -86.6757C691.544 -35.5619 777.711 -9.60406 790.552 63.5582C804.792 144.688 762.541 227.771 702.791 284.47C642.169 341.996 555.182 386.1 474.818 363.168C400.603 341.99 395.64 240.406 344.821 182.321C296.613 127.221 196.693 111.049 190.417 38.1055C184.039 -36.0182 259.772 -88.0221 317.523 -134.924C370.693 -178.105 431.512 -222.911 499.242 -212.703C563.382 -203.036 590.581 -131.31 637.646 -86.6757Z" stroke="#B9BCC7"/>
<path fill-rule="evenodd" clip-rule="evenodd" d="M648.646 -86.6757C702.544 -35.5619 788.711 -9.60406 801.552 63.5582C815.792 144.688 773.541 227.771 713.791 284.47C653.169 341.996 566.182 386.1 485.818 363.168C411.603 341.99 406.64 240.406 355.821 182.321C307.613 127.221 207.693 111.049 201.417 38.1055C195.039 -36.0182 270.772 -88.0221 328.523 -134.924C381.693 -178.105 442.512 -222.911 510.242 -212.703C574.382 -203.036 601.581 -131.31 648.646 -86.6757Z" stroke="#B9BCC7"/>
<path fill-rule="evenodd" clip-rule="evenodd" d="M659.646 -86.6757C713.544 -35.5619 799.711 -9.60406 812.552 63.5582C826.792 144.688 784.541 227.771 724.791 284.47C664.169 341.996 577.182 386.1 496.818 363.168C422.603 341.99 417.64 240.406 366.821 182.321C318.613 127.221 218.693 111.049 212.417 38.1055C206.039 -36.0182 281.772 -88.0221 339.523 -134.924C392.693 -178.105 453.512 -222.911 521.242 -212.703C585.382 -203.036 612.581 -131.31 659.646 -86.6757Z" stroke="#B9BCC7"/>
<path fill-rule="evenodd" clip-rule="evenodd" d="M670.646 -86.6757C724.544 -35.5619 810.711 -9.60406 823.552 63.5582C837.792 144.688 795.541 227.771 735.791 284.47C675.169 341.996 588.182 386.1 507.818 363.168C433.603 341.99 428.64 240.406 377.821 182.321C329.613 127.221 229.693 111.049 223.417 38.1055C217.039 -36.0182 292.772 -88.0221 350.523 -134.924C403.693 -178.105 464.512 -222.911 532.242 -212.703C596.382 -203.036 623.581 -131.31 670.646 -86.6757Z" stroke="#B9BCC7"/>
<path fill-rule="evenodd" clip-rule="evenodd" d="M681.646 -86.6757C735.544 -35.5619 821.711 -9.60406 834.552 63.5582C848.792 144.688 806.541 227.771 746.791 284.47C686.169 341.996 599.182 386.1 518.818 363.168C444.603 341.99 439.64 240.406 388.821 182.321C340.613 127.221 240.693 111.049 234.417 38.1055C228.039 -36.0182 303.772 -88.0221 361.523 -134.924C414.693 -178.105 475.512 -222.911 543.242 -212.703C607.382 -203.036 634.581 -131.31 681.646 -86.6757Z" stroke="#B9BCC7"/>
<path fill-rule="evenodd" clip-rule="evenodd" d="M692.646 -86.6757C746.544 -35.5619 832.711 -9.60406 845.552 63.5582C859.792 144.688 817.541 227.771 757.791 284.47C697.169 341.996 610.182 386.1 529.818 363.168C455.603 341.99 450.64 240.406 399.821 182.321C351.613 127.221 251.693 111.049 245.417 38.1055C239.039 -36.0182 314.772 -88.0221 372.523 -134.924C425.693 -178.105 486.512 -222.911 554.242 -212.703C618.382 -203.036 645.581 -131.31 692.646 -86.6757Z" stroke="#B9BCC7"/>
<path fill-rule="evenodd" clip-rule="evenodd" d="M703.646 -86.6757C757.544 -35.5619 843.711 -9.60406 856.552 63.5582C870.792 144.688 828.541 227.771 768.791 284.47C708.169 341.996 621.182 386.1 540.818 363.168C466.603 341.99 461.64 240.406 410.821 182.321C362.613 127.221 262.693 111.049 256.417 38.1055C250.039 -36.0182 325.772 -88.0221 383.523 -134.924C436.693 -178.105 497.512 -222.911 565.242 -212.703C629.382 -203.036 656.581 -131.31 703.646 -86.6757Z" stroke="#B9BCC7"/>
</g>
</svg>
