<svg width="14" height="14" viewBox="0 0 14 14" fill="none" xmlns="http://www.w3.org/2000/svg">
<path fill-rule="evenodd" clip-rule="evenodd" d="M6.41083 12.2442C6.08539 12.5696 6.08539 13.0972 6.41083 13.4227C6.73626 13.7481 7.2639 13.7481 7.58934 13.4227L13.4227 7.58934C13.5059 7.50608 13.5679 7.40959 13.6085 7.30663C13.6415 7.22331 13.6615 7.13342 13.6658 7.03945C13.6713 6.92214 13.6522 6.80388 13.6084 6.69312C13.5677 6.59032 13.5058 6.49397 13.4227 6.41083L7.58934 0.577493C7.2639 0.252055 6.73626 0.252055 6.41083 0.577493C6.08539 0.902929 6.08539 1.43057 6.41083 1.756L10.8216 6.16675L1.16674 6.16675C0.7065 6.16675 0.333405 6.53984 0.333405 7.00008C0.333405 7.46032 0.7065 7.83341 1.16674 7.83341L10.8216 7.83341L6.41083 12.2442Z" fill="white"/>
</svg>
