<svg width="24" height="24" viewBox="0 0 24 24" fill="none" xmlns="http://www.w3.org/2000/svg">
<path fill-rule="evenodd" clip-rule="evenodd" d="M11.2929 18.2929C10.9024 18.6834 10.9024 19.3166 11.2929 19.7071C11.6834 20.0976 12.3166 20.0976 12.7071 19.7071L19.7071 12.7071C19.807 12.6072 19.8814 12.4914 19.9302 12.3678C19.9697 12.2678 19.9936 12.16 19.9989 12.0472C20.0055 11.9064 19.9825 11.7643 19.9298 11.6313C19.881 11.5081 19.8068 11.3926 19.7071 11.2929L12.7071 4.29289C12.3166 3.90237 11.6834 3.90237 11.2929 4.29289C10.9024 4.68342 10.9024 5.31658 11.2929 5.70711L16.5858 11L4.99999 11C4.4477 11 3.99999 11.4477 3.99999 12C3.99999 12.5523 4.4477 13 4.99999 13L16.5858 13L11.2929 18.2929Z" fill="#1E212A"/>
</svg>
