<svg width="108" height="18" viewBox="0 0 108 18" fill="none" xmlns="http://www.w3.org/2000/svg">
<path d="M4.328 8.013H8.182V13.575C8.182 16.385 6.759 18 4.09 18C1.421 18 0 16.386 0 13.575V4.425C0 1.615 1.423 0 4.09 0C6.759 0 8.182 1.615 8.182 4.425V6.159H5.573V4.246C5.573 2.991 5.04 2.512 4.15 2.512C3.26 2.512 2.727 2.991 2.727 4.246V13.754C2.727 15.01 3.261 15.489 4.15 15.489C5.04 15.489 5.573 15.01 5.573 13.754V10.525H4.328V8.013ZM12.221 12.02L8.727 0H11.619L13.727 8.176L15.835 0H18.545L14.992 12.02V18H12.22L12.221 12.02ZM25.423 12.796L27.313 0H31.091V18H28.493V5.082L26.603 18H24.006L21.998 5.265V18H19.636V0H23.416L25.423 12.796ZM37.154 0C40 0 41.454 1.615 41.454 4.425V4.963H38.672V4.246C38.672 2.99 38.166 2.512 37.217 2.512C36.269 2.512 35.763 2.99 35.763 4.246C35.763 7.894 41.454 8.552 41.454 13.575C41.454 16.385 39.936 18 37.091 18C34.245 18 32.727 16.386 32.727 13.575V12.498H35.51V13.754C35.51 15.01 36.079 15.489 37.028 15.489C37.976 15.489 38.545 15.009 38.545 13.754C38.545 10.106 32.854 9.448 32.854 4.425C32.854 1.615 34.308 0 37.154 0ZM45.467 18H42.545V0H45.467V7.714H48.833V0H51.818V18H48.833V10.286H45.467V18ZM62.727 18H59.88L59.395 14.755H55.94L55.455 18H52.909L55.758 0H59.878L62.727 18ZM56.364 12.306H59.091L57.757 3.183L56.364 12.306ZM69.596 17.938C69.416 17.45 69.356 17.206 69.356 15.742V12.935C69.356 11.288 68.813 10.678 67.55 10.678H66.586V18H63.818V0H68.031C70.92 0 72.184 1.342 72.184 4.15V5.552C72.184 7.382 71.582 8.603 70.378 9.214C71.763 9.824 72.244 11.167 72.244 13.058V15.804C72.244 16.658 72.244 17.329 72.545 18H69.596V17.938ZM66.586 2.562V8.053H67.67C68.693 8.053 69.355 7.565 69.355 6.162V4.392C69.355 3.111 68.934 2.562 67.911 2.562H66.586ZM77.604 10.837L76.805 12.49V18H74.182V0H76.805V7.836L80.285 0H82.909L79.259 8.02L82.909 18H80.171L77.604 10.837ZM85.09 0H108C108 0 97.5 12.041 92.19 18C92.19 18 92.608 17.08 92.847 16.71C92.608 16.71 92.369 15.727 92.072 15.235C91.7861 15.4035 91.4863 15.5473 91.176 15.665C90.878 15.85 90.699 15.789 90.52 15.421C90.4 15.113 90.282 14.745 90.102 14.438C89.804 14.561 89.088 14.991 88.969 14.991L85.269 13.393C85.329 13.393 87.119 13.333 87.894 13.393L89.088 14.438C89.386 14.132 89.625 13.64 89.864 13.393H90.52C90.758 13.639 90.997 14.069 91.235 14.376L92.13 13.456H92.608C92.847 13.701 93.144 14.069 93.383 14.315C93.383 14.315 93.443 14.315 93.502 14.376C93.502 14.376 93.98 13.823 94.159 13.578H94.696C94.696 13.578 101.437 3.134 101.497 3.011C96.068 1.966 85.091 0 85.091 0H85.09Z" fill="#1E212A"/>
</svg>
