<svg width="79" height="32" viewBox="0 0 79 32" fill="none" xmlns="http://www.w3.org/2000/svg">
<path d="M18.058 0H10.4795L12.8355 7.34815H20.414L14.2884 11.7333L16.6444 19.121C20.5711 16.237 21.8669 11.8519 20.414 7.34815L18.058 0ZM0.584306 7.34815H8.16279L10.5188 0H2.90104L0.584306 7.34815C-0.868563 11.8519 0.387973 16.237 4.35391 19.121L6.70992 11.7333L0.584306 7.34815ZM4.35391 19.121L10.4795 23.4667L16.6051 19.121L10.4795 14.6568L4.35391 19.121ZM61.5656 7.19012C59.7593 7.19012 58.6206 8.01975 58.0708 9.32346H57.953V3.27901H55.2829V19.0815H58.0316V12.2074C58.0316 10.5086 59.0918 9.52099 60.5446 9.52099C61.9975 9.52099 62.8221 10.4691 62.8221 12.0494V19.0815H65.5708V11.5753C65.5708 8.77037 64.0001 7.19012 61.5656 7.19012ZM73.0315 3.23951C69.3011 3.23951 67.0629 6.16296 67.0629 11.2593C67.0629 16.3556 69.2618 19.358 73.0315 19.358C76.7618 19.358 79 16.3951 79 11.2593C79 6.12346 76.7618 3.23951 73.0315 3.23951ZM69.8901 11.2593C69.8901 7.54568 71.1074 5.60988 73.0315 5.60988C74.3665 5.60988 75.3089 6.51852 75.8194 8.25679L69.9687 12.5235C69.8901 12.1679 69.8901 11.7333 69.8901 11.2593ZM73.0315 16.9482C71.6964 16.9482 70.6755 16 70.2043 14.1037L76.0943 9.79753C76.1335 10.2716 76.1728 10.7852 76.1728 11.2593C76.1728 15.0123 74.9555 16.9482 73.0315 16.9482ZM42.8746 14.1432C42.8746 15.921 41.6181 16.7901 40.4008 16.7901C39.1835 16.7901 38.2019 15.842 38.2019 14.3802V7.30864H35.4532V14.7753C35.4532 17.6198 37.0631 19.2 39.3406 19.2C41.0683 19.2 42.3249 18.2519 42.8353 16.9482H42.9531V19.042H45.6233V7.30864H42.8746V14.1432ZM29.2098 7.15062C26.736 7.15062 24.8904 8.25679 24.2622 10.3901L26.8145 10.7457C27.0894 9.91605 27.8747 9.24445 29.2098 9.24445C30.5448 9.24445 31.1731 9.87654 31.1731 11.0617V11.1012C31.1731 11.8914 30.3485 11.9309 28.3066 12.1679C26.2648 12.4049 23.8695 13.1161 23.8695 15.763C23.8695 18.0543 25.558 19.279 27.7962 19.279C29.6024 19.279 30.7019 18.4099 31.2124 17.4222H31.2909V19.042H33.9218V11.1802C33.961 8.09877 31.448 7.15062 29.2098 7.15062ZM31.2124 14.8543C31.2124 16.158 30.1522 17.2642 28.503 17.2642C27.3642 17.2642 26.5396 16.7506 26.5396 15.7235C26.5396 14.6963 27.482 14.2222 28.6993 14.0247C29.4061 13.9062 30.859 13.7481 31.2124 13.4321V14.8543ZM51.5133 4.38519H48.7646V7.34815H47.0761V9.52099H48.7646V16.0395C48.7646 18.2519 50.3353 19.3185 52.4164 19.279C52.8876 19.279 53.3588 19.2 53.83 19.0815V16.9086C53.6337 16.9481 53.1232 16.9877 52.7698 17.0272C52.063 17.0272 51.5133 16.7901 51.5133 15.684V9.52099H53.7908V7.34815H51.5133V4.38519Z" fill="#1E212A"/>
<path d="M54.9296 30.6962C55.7934 30.6962 56.3824 29.9851 56.3824 28.7999C56.3824 27.6147 55.7542 26.9036 54.9296 26.9036C54.3013 26.9036 53.9479 27.2591 53.7908 27.5357V26.8641V25.5209H53.1233V30.6172H53.7908V30.0246C53.9479 30.3406 54.3013 30.6962 54.9296 30.6962ZM54.7332 30.1036C54.1442 30.1036 53.7516 29.669 53.7516 28.7604C53.7516 27.8912 54.1835 27.4567 54.7332 27.4567C55.283 27.4567 55.7149 27.7727 55.7149 28.7604C55.7149 29.748 55.283 30.1036 54.7332 30.1036ZM59.5238 26.9826L58.8955 28.8394C58.7384 29.3135 58.6992 29.4715 58.6206 29.669C58.5421 29.511 58.5028 29.353 58.2672 28.7604L57.5212 26.9431H56.7751L58.3458 30.4986L58.1494 31.0122C58.0316 31.2888 57.9138 31.3283 57.639 31.3283H56.9322V31.9999H57.6782C58.3065 31.9999 58.5814 31.7628 58.817 31.0912L60.2306 26.9826H59.5238ZM65.0604 30.6962C66.5132 30.6962 67.5735 29.6295 67.5735 28.0493C67.5735 26.469 66.5132 25.4023 65.0604 25.4023C63.6075 25.4023 62.508 26.469 62.508 28.0493C62.508 29.6295 63.6075 30.6962 65.0604 30.6962ZM65.0604 30.0246C63.9609 30.0246 63.2934 29.1554 63.2934 28.0493C63.2934 26.9036 63.9609 26.0739 65.0604 26.0739C66.1598 26.0739 66.8274 26.9431 66.8274 28.0493C66.8274 29.1554 66.1598 30.0246 65.0604 30.0246ZM71.186 30.5777H72.0499L70.3221 28.4443L71.9321 26.9431H71.0682L69.2227 28.7604V27.5752V25.4814H68.5551V30.5777H69.2227V29.511L69.8902 28.8789L71.186 30.5777ZM73.9347 30.5777H74.7985V29.9851H74.0525C73.8169 29.9851 73.6991 29.8665 73.6991 29.6295V27.5357H74.6807V26.9826H73.6991V25.8369H73.0315V26.9826H72.2069V27.5357H73.0315V29.7085C73.0315 30.3011 73.3457 30.5777 73.9347 30.5777ZM76.5263 30.6962C77.1153 30.6962 77.4294 30.4591 77.7043 30.0641C77.7435 30.3801 77.8613 30.6172 78.3718 30.6172H78.8823V30.0246H78.5289C78.3718 30.0246 78.3325 29.9851 78.3325 29.827V28.1678C78.3325 27.3777 77.8613 26.9036 76.8797 26.9036C75.9373 26.9036 75.4268 27.4172 75.309 27.9307L75.9765 28.1283C76.0551 27.8517 76.2907 27.4962 76.9189 27.4962C77.4294 27.4962 77.665 27.7332 77.665 28.1678V28.2863C76.487 28.3653 75.3875 28.7209 75.3875 29.7085C75.3483 30.3011 75.8195 30.6962 76.5263 30.6962ZM76.6833 30.1036C76.2514 30.1036 76.0551 29.906 76.0551 29.59C76.0551 28.9974 76.7619 28.7999 77.6257 28.7209V29.0764C77.6257 29.827 77.1545 30.1036 76.6833 30.1036Z" fill="#1E212A"/>
</svg>
