<svg width="1158" height="52" viewBox="0 0 1158 52" fill="none" xmlns="http://www.w3.org/2000/svg">
<path d="M11 4H4C3.46957 4 2.96086 4.21071 2.58579 4.58579C2.21071 4.96086 2 5.46957 2 6V20C2 20.5304 2.21071 21.0391 2.58579 21.4142C2.96086 21.7893 3.46957 22 4 22H18C18.5304 22 19.0391 21.7893 19.4142 21.4142C19.7893 21.0391 20 20.5304 20 20V13" stroke="#EE5D4A" stroke-width="1.5" stroke-linecap="round" stroke-linejoin="round"/>
<path d="M18.5 2.49998C18.697 2.303 18.9308 2.14674 19.1882 2.04014C19.4456 1.93353 19.7214 1.87866 20 1.87866C20.2786 1.87866 20.5544 1.93353 20.8118 2.04014C21.0692 2.14674 21.303 2.303 21.5 2.49998C21.697 2.69697 21.8532 2.93082 21.9598 3.18819C22.0665 3.44556 22.1213 3.72141 22.1213 3.99998C22.1213 4.27856 22.0665 4.55441 21.9598 4.81178C21.8532 5.06915 21.697 5.303 21.5 5.49998L12 15L8 16L9 12L18.5 2.49998Z" stroke="#EE5D4A" stroke-width="1.5" stroke-linecap="round" stroke-linejoin="round"/>
<path d="M31.022 17V7.2H35.138C35.7447 7.2 36.2767 7.30733 36.734 7.522C37.2007 7.72733 37.56 8.026 37.812 8.418C38.0733 8.81 38.204 9.27667 38.204 9.818V9.972C38.204 10.588 38.0547 11.0827 37.756 11.456C37.4667 11.82 37.112 12.0767 36.692 12.226V12.45C37.0467 12.4687 37.3313 12.59 37.546 12.814C37.7607 13.0287 37.868 13.3413 37.868 13.752V17H36.342V13.962C36.342 13.71 36.2767 13.5093 36.146 13.36C36.0153 13.2107 35.8053 13.136 35.516 13.136H32.534V17H31.022ZM32.534 11.764H34.97C35.5113 11.764 35.9313 11.6287 36.23 11.358C36.5287 11.078 36.678 10.7 36.678 10.224V10.112C36.678 9.636 36.5287 9.26267 36.23 8.992C35.9407 8.712 35.5207 8.572 34.97 8.572H32.534V11.764ZM40.0777 17V7.2H46.2517V8.572H41.5897V11.386H45.8597V12.758H41.5897V15.628H46.3217V17H40.0777ZM51.51 17.196C50.81 17.196 50.1847 17.0467 49.634 16.748C49.0833 16.44 48.6493 15.992 48.332 15.404C48.0147 14.816 47.856 14.0973 47.856 13.248V10.952C47.856 9.67333 48.206 8.698 48.906 8.026C49.606 7.34467 50.5533 7.004 51.748 7.004C52.924 7.004 53.8293 7.326 54.464 7.97C55.0987 8.60467 55.416 9.45867 55.416 10.532V10.602H53.918V10.49C53.918 10.0887 53.8387 9.72933 53.68 9.412C53.5213 9.08533 53.2833 8.82867 52.966 8.642C52.6487 8.45533 52.2427 8.362 51.748 8.362C51.0013 8.362 50.418 8.59067 49.998 9.048C49.578 9.496 49.368 10.1213 49.368 10.924V13.276C49.368 14.0693 49.578 14.6993 49.998 15.166C50.418 15.6233 51.006 15.852 51.762 15.852C52.5087 15.852 53.0547 15.6467 53.4 15.236C53.7453 14.8253 53.918 14.2933 53.918 13.64V13.458H51.286V12.156H55.416V17H54.016V16.006H53.792C53.708 16.1833 53.582 16.3653 53.414 16.552C53.2553 16.7387 53.022 16.8927 52.714 17.014C52.4153 17.1353 52.014 17.196 51.51 17.196ZM57.5739 17V7.2H59.0859V17H57.5739ZM64.6706 17.196C63.9332 17.196 63.2799 17.0653 62.7106 16.804C62.1412 16.5427 61.6932 16.16 61.3666 15.656C61.0492 15.1427 60.8906 14.522 60.8906 13.794V13.444H62.3886V13.794C62.3886 14.4847 62.5939 15.0027 63.0046 15.348C63.4246 15.6933 63.9799 15.866 64.6706 15.866C65.3706 15.866 65.8979 15.7213 66.2526 15.432C66.6072 15.1333 66.7846 14.7507 66.7846 14.284C66.7846 13.976 66.7006 13.724 66.5326 13.528C66.3646 13.332 66.1266 13.178 65.8186 13.066C65.5106 12.9447 65.1419 12.8327 64.7126 12.73L64.1946 12.604C63.5692 12.4547 63.0232 12.2727 62.5566 12.058C62.0992 11.834 61.7446 11.54 61.4926 11.176C61.2406 10.812 61.1146 10.3453 61.1146 9.776C61.1146 9.19733 61.2546 8.70267 61.5346 8.292C61.8239 7.88133 62.2206 7.564 62.7246 7.34C63.2286 7.116 63.8212 7.004 64.5026 7.004C65.1839 7.004 65.7906 7.12067 66.3226 7.354C66.8639 7.58733 67.2886 7.93267 67.5966 8.39C67.9046 8.84733 68.0586 9.42133 68.0586 10.112V10.616H66.5606V10.112C66.5606 9.692 66.4719 9.35133 66.2946 9.09C66.1266 8.82867 65.8886 8.63733 65.5806 8.516C65.2726 8.39467 64.9132 8.334 64.5026 8.334C63.9052 8.334 63.4386 8.46 63.1026 8.712C62.7759 8.95467 62.6126 9.29533 62.6126 9.734C62.6126 10.0327 62.6826 10.28 62.8226 10.476C62.9719 10.6627 63.1866 10.8167 63.4666 10.938C63.7466 11.0593 64.0966 11.1667 64.5166 11.26L65.0346 11.386C65.6692 11.526 66.2292 11.708 66.7146 11.932C67.1999 12.1467 67.5826 12.4407 67.8626 12.814C68.1426 13.1873 68.2826 13.668 68.2826 14.256C68.2826 14.844 68.1332 15.3573 67.8346 15.796C67.5452 16.2347 67.1299 16.58 66.5886 16.832C66.0472 17.0747 65.4079 17.196 64.6706 17.196ZM72.0487 17V8.572H69.0387V7.2H76.5707V8.572H73.5607V17H72.0487ZM78.1511 17V7.2H82.2671C82.8738 7.2 83.4058 7.30733 83.8631 7.522C84.3298 7.72733 84.6891 8.026 84.9411 8.418C85.2025 8.81 85.3331 9.27667 85.3331 9.818V9.972C85.3331 10.588 85.1838 11.0827 84.8851 11.456C84.5958 11.82 84.2411 12.0767 83.8211 12.226V12.45C84.1758 12.4687 84.4605 12.59 84.6751 12.814C84.8898 13.0287 84.9971 13.3413 84.9971 13.752V17H83.4711V13.962C83.4711 13.71 83.4058 13.5093 83.2751 13.36C83.1445 13.2107 82.9345 13.136 82.6451 13.136H79.6631V17H78.1511ZM79.6631 11.764H82.0991C82.6405 11.764 83.0605 11.6287 83.3591 11.358C83.6578 11.078 83.8071 10.7 83.8071 10.224V10.112C83.8071 9.636 83.6578 9.26267 83.3591 8.992C83.0698 8.712 82.6498 8.572 82.0991 8.572H79.6631V11.764ZM86.4788 17L89.2788 7.2H91.9388L94.7248 17H93.1708L92.5268 14.69H88.6908L88.0468 17H86.4788ZM89.0688 13.29H92.1488L90.7208 8.138H90.4968L89.0688 13.29ZM97.6298 17V8.572H94.6198V7.2H102.152V8.572H99.1418V17H97.6298ZM103.732 17V7.2H105.244V17H103.732ZM111.179 17.196C109.975 17.196 109.018 16.86 108.309 16.188C107.6 15.5067 107.245 14.5267 107.245 13.248V10.952C107.245 9.67333 107.6 8.698 108.309 8.026C109.018 7.34467 109.975 7.004 111.179 7.004C112.383 7.004 113.34 7.34467 114.049 8.026C114.768 8.698 115.127 9.67333 115.127 10.952V13.248C115.127 14.5267 114.768 15.5067 114.049 16.188C113.34 16.86 112.383 17.196 111.179 17.196ZM111.179 15.838C111.954 15.838 112.551 15.614 112.971 15.166C113.391 14.7087 113.601 14.088 113.601 13.304V10.896C113.601 10.112 113.391 9.496 112.971 9.048C112.551 8.59067 111.954 8.362 111.179 8.362C110.423 8.362 109.83 8.59067 109.401 9.048C108.972 9.496 108.757 10.112 108.757 10.896V13.304C108.757 14.088 108.972 14.7087 109.401 15.166C109.83 15.614 110.423 15.838 111.179 15.838ZM117.127 17V7.2H120.039L122.699 15.992H122.923V7.2H124.421V17H121.509L118.849 8.194H118.625V17H117.127Z" fill="#EE5D4A"/>
<path d="M298.75 13.25H305.25M298.75 16.75H305.25M304 2H296C295.47 2 294.961 2.21071 294.586 2.58579C294.211 2.96086 294 3.46957 294 4V20C294 20.5304 294.211 21.0391 294.586 21.4142C294.961 21.7893 295.47 22 296 22H308C308.53 22 309.039 21.7893 309.414 21.4142C309.789 21.0391 310 20.5304 310 20V4C310 3.46957 309.789 2.96086 309.414 2.58579C309.039 2.21071 308.53 2 308 2H304Z" stroke="#FF44DD" stroke-width="1.5" stroke-linecap="round" stroke-linejoin="round"/>
<path d="M302 10C303.105 10 304 9.10457 304 8C304 6.89543 303.105 6 302 6C300.895 6 300 6.89543 300 8C300 9.10457 300.895 10 302 10Z" fill="#FF44DD"/>
<path d="M321.022 17V7.2H322.534V15.628H327.252V17H321.022ZM332.228 17.196C331.024 17.196 330.068 16.86 329.358 16.188C328.649 15.5067 328.294 14.5267 328.294 13.248V10.952C328.294 9.67333 328.649 8.698 329.358 8.026C330.068 7.34467 331.024 7.004 332.228 7.004C333.432 7.004 334.389 7.34467 335.098 8.026C335.817 8.698 336.176 9.67333 336.176 10.952V13.248C336.176 14.5267 335.817 15.5067 335.098 16.188C334.389 16.86 333.432 17.196 332.228 17.196ZM332.228 15.838C333.003 15.838 333.6 15.614 334.02 15.166C334.44 14.7087 334.65 14.088 334.65 13.304V10.896C334.65 10.112 334.44 9.496 334.02 9.048C333.6 8.59067 333.003 8.362 332.228 8.362C331.472 8.362 330.88 8.59067 330.45 9.048C330.021 9.496 329.806 10.112 329.806 10.896V13.304C329.806 14.088 330.021 14.7087 330.45 15.166C330.88 15.614 331.472 15.838 332.228 15.838ZM341.578 17.196C340.878 17.196 340.253 17.0467 339.702 16.748C339.152 16.44 338.718 15.992 338.4 15.404C338.083 14.816 337.924 14.0973 337.924 13.248V10.952C337.924 9.67333 338.274 8.698 338.974 8.026C339.674 7.34467 340.622 7.004 341.816 7.004C342.992 7.004 343.898 7.326 344.532 7.97C345.167 8.60467 345.484 9.45867 345.484 10.532V10.602H343.986V10.49C343.986 10.0887 343.907 9.72933 343.748 9.412C343.59 9.08533 343.352 8.82867 343.034 8.642C342.717 8.45533 342.311 8.362 341.816 8.362C341.07 8.362 340.486 8.59067 340.066 9.048C339.646 9.496 339.436 10.1213 339.436 10.924V13.276C339.436 14.0693 339.646 14.6993 340.066 15.166C340.486 15.6233 341.074 15.852 341.83 15.852C342.577 15.852 343.123 15.6467 343.468 15.236C343.814 14.8253 343.986 14.2933 343.986 13.64V13.458H341.354V12.156H345.484V17H344.084V16.006H343.86C343.776 16.1833 343.65 16.3653 343.482 16.552C343.324 16.7387 343.09 16.8927 342.782 17.014C342.484 17.1353 342.082 17.196 341.578 17.196ZM347.642 17V7.2H349.154V17H347.642ZM351.407 17V7.2H354.319L356.979 15.992H357.203V7.2H358.701V17H355.789L353.129 8.194H352.905V17H351.407Z" fill="#FF44DD"/>
<path d="M602 11.08V12C601.999 14.1564 601.301 16.2547 600.009 17.9818C598.718 19.709 596.903 20.9725 594.835 21.5839C592.767 22.1953 590.557 22.1219 588.534 21.3746C586.512 20.6273 584.785 19.2461 583.611 17.4371C582.437 15.628 581.88 13.4881 582.022 11.3363C582.164 9.18455 582.997 7.13631 584.398 5.49706C585.799 3.85781 587.693 2.71537 589.796 2.24013C591.9 1.7649 594.1 1.98232 596.07 2.85999" stroke="#635DFF" stroke-width="1.5" stroke-linecap="round" stroke-linejoin="round"/>
<path d="M602 4L592 14.01L589 11.01" stroke="#635DFF" stroke-width="1.5" stroke-linecap="round" stroke-linejoin="round"/>
<path d="M610.294 17L613.094 7.2H615.754L618.54 17H616.986L616.342 14.69H612.506L611.862 17H610.294ZM612.884 13.29H615.964L614.536 8.138H614.312L612.884 13.29ZM623.608 17.196C622.414 17.196 621.466 16.86 620.766 16.188C620.066 15.5067 619.716 14.5267 619.716 13.248V10.952C619.716 9.67333 620.066 8.698 620.766 8.026C621.466 7.34467 622.414 7.004 623.608 7.004C624.784 7.004 625.69 7.33067 626.324 7.984C626.968 8.63733 627.29 9.52867 627.29 10.658V10.742H625.792V10.616C625.792 9.95333 625.61 9.412 625.246 8.992C624.892 8.572 624.346 8.362 623.608 8.362C622.862 8.362 622.278 8.59067 621.858 9.048C621.438 9.496 621.228 10.1213 621.228 10.924V13.276C621.228 14.0693 621.438 14.6947 621.858 15.152C622.278 15.6093 622.862 15.838 623.608 15.838C624.346 15.838 624.892 15.628 625.246 15.208C625.61 14.7787 625.792 14.2373 625.792 13.584V13.346H627.29V13.542C627.29 14.6713 626.968 15.5627 626.324 16.216C625.69 16.8693 624.784 17.196 623.608 17.196ZM632.814 17.196C631.62 17.196 630.672 16.86 629.972 16.188C629.272 15.5067 628.922 14.5267 628.922 13.248V10.952C628.922 9.67333 629.272 8.698 629.972 8.026C630.672 7.34467 631.62 7.004 632.814 7.004C633.99 7.004 634.896 7.33067 635.53 7.984C636.174 8.63733 636.496 9.52867 636.496 10.658V10.742H634.998V10.616C634.998 9.95333 634.816 9.412 634.452 8.992C634.098 8.572 633.552 8.362 632.814 8.362C632.068 8.362 631.484 8.59067 631.064 9.048C630.644 9.496 630.434 10.1213 630.434 10.924V13.276C630.434 14.0693 630.644 14.6947 631.064 15.152C631.484 15.6093 632.068 15.838 632.814 15.838C633.552 15.838 634.098 15.628 634.452 15.208C634.816 14.7787 634.998 14.2373 634.998 13.584V13.346H636.496V13.542C636.496 14.6713 636.174 15.5627 635.53 16.216C634.896 16.8693 633.99 17.196 632.814 17.196ZM638.381 17V7.2H644.555V8.572H639.893V11.386H644.163V12.758H639.893V15.628H644.625V17H638.381ZM649.743 17.196C649.005 17.196 648.352 17.0653 647.783 16.804C647.213 16.5427 646.765 16.16 646.439 15.656C646.121 15.1427 645.963 14.522 645.963 13.794V13.444H647.461V13.794C647.461 14.4847 647.666 15.0027 648.077 15.348C648.497 15.6933 649.052 15.866 649.743 15.866C650.443 15.866 650.97 15.7213 651.325 15.432C651.679 15.1333 651.857 14.7507 651.857 14.284C651.857 13.976 651.773 13.724 651.605 13.528C651.437 13.332 651.199 13.178 650.891 13.066C650.583 12.9447 650.214 12.8327 649.785 12.73L649.267 12.604C648.641 12.4547 648.095 12.2727 647.629 12.058C647.171 11.834 646.817 11.54 646.565 11.176C646.313 10.812 646.187 10.3453 646.187 9.776C646.187 9.19733 646.327 8.70267 646.607 8.292C646.896 7.88133 647.293 7.564 647.797 7.34C648.301 7.116 648.893 7.004 649.575 7.004C650.256 7.004 650.863 7.12067 651.395 7.354C651.936 7.58733 652.361 7.93267 652.669 8.39C652.977 8.84733 653.131 9.42133 653.131 10.112V10.616H651.633V10.112C651.633 9.692 651.544 9.35133 651.367 9.09C651.199 8.82867 650.961 8.63733 650.653 8.516C650.345 8.39467 649.985 8.334 649.575 8.334C648.977 8.334 648.511 8.46 648.175 8.712C647.848 8.95467 647.685 9.29533 647.685 9.734C647.685 10.0327 647.755 10.28 647.895 10.476C648.044 10.6627 648.259 10.8167 648.539 10.938C648.819 11.0593 649.169 11.1667 649.589 11.26L650.107 11.386C650.741 11.526 651.301 11.708 651.787 11.932C652.272 12.1467 652.655 12.4407 652.935 12.814C653.215 13.1873 653.355 13.668 653.355 14.256C653.355 14.844 653.205 15.3573 652.907 15.796C652.617 16.2347 652.202 16.58 651.661 16.832C651.119 17.0747 650.48 17.196 649.743 17.196ZM658.484 17.196C657.747 17.196 657.093 17.0653 656.524 16.804C655.955 16.5427 655.507 16.16 655.18 15.656C654.863 15.1427 654.704 14.522 654.704 13.794V13.444H656.202V13.794C656.202 14.4847 656.407 15.0027 656.818 15.348C657.238 15.6933 657.793 15.866 658.484 15.866C659.184 15.866 659.711 15.7213 660.066 15.432C660.421 15.1333 660.598 14.7507 660.598 14.284C660.598 13.976 660.514 13.724 660.346 13.528C660.178 13.332 659.94 13.178 659.632 13.066C659.324 12.9447 658.955 12.8327 658.526 12.73L658.008 12.604C657.383 12.4547 656.837 12.2727 656.37 12.058C655.913 11.834 655.558 11.54 655.306 11.176C655.054 10.812 654.928 10.3453 654.928 9.776C654.928 9.19733 655.068 8.70267 655.348 8.292C655.637 7.88133 656.034 7.564 656.538 7.34C657.042 7.116 657.635 7.004 658.316 7.004C658.997 7.004 659.604 7.12067 660.136 7.354C660.677 7.58733 661.102 7.93267 661.41 8.39C661.718 8.84733 661.872 9.42133 661.872 10.112V10.616H660.374V10.112C660.374 9.692 660.285 9.35133 660.108 9.09C659.94 8.82867 659.702 8.63733 659.394 8.516C659.086 8.39467 658.727 8.334 658.316 8.334C657.719 8.334 657.252 8.46 656.916 8.712C656.589 8.95467 656.426 9.29533 656.426 9.734C656.426 10.0327 656.496 10.28 656.636 10.476C656.785 10.6627 657 10.8167 657.28 10.938C657.56 11.0593 657.91 11.1667 658.33 11.26L658.848 11.386C659.483 11.526 660.043 11.708 660.528 11.932C661.013 12.1467 661.396 12.4407 661.676 12.814C661.956 13.1873 662.096 13.668 662.096 14.256C662.096 14.844 661.947 15.3573 661.648 15.796C661.359 16.2347 660.943 16.58 660.402 16.832C659.861 17.0747 659.221 17.196 658.484 17.196Z" fill="#635DFF"/>
<path d="M891 16V8.00002C891 7.6493 890.907 7.30483 890.732 7.00119C890.556 6.69754 890.304 6.44539 890 6.27002L883 2.27002C882.696 2.09449 882.351 2.00208 882 2.00208C881.649 2.00208 881.304 2.09449 881 2.27002L874 6.27002C873.696 6.44539 873.444 6.69754 873.268 7.00119C873.093 7.30483 873 7.6493 873 8.00002V16C873 16.3508 873.093 16.6952 873.268 16.9989C873.444 17.3025 873.696 17.5547 874 17.73L881 21.73C881.304 21.9056 881.649 21.998 882 21.998C882.351 21.998 882.696 21.9056 883 21.73L890 17.73C890.304 17.5547 890.556 17.3025 890.732 16.9989C890.907 16.6952 891 16.3508 891 16Z" stroke="#13A688" stroke-width="1.5" stroke-linecap="round" stroke-linejoin="round"/>
<path d="M903.36 17V8.572H900.35V7.2H907.882V8.572H904.872V17H903.36ZM909.462 17V7.2H913.578C914.185 7.2 914.717 7.30733 915.174 7.522C915.641 7.72733 916 8.026 916.252 8.418C916.514 8.81 916.644 9.27667 916.644 9.818V9.972C916.644 10.588 916.495 11.0827 916.196 11.456C915.907 11.82 915.552 12.0767 915.132 12.226V12.45C915.487 12.4687 915.772 12.59 915.986 12.814C916.201 13.0287 916.308 13.3413 916.308 13.752V17H914.782V13.962C914.782 13.71 914.717 13.5093 914.586 13.36C914.456 13.2107 914.246 13.136 913.956 13.136H910.974V17H909.462ZM910.974 11.764H913.41C913.952 11.764 914.372 11.6287 914.67 11.358C914.969 11.078 915.118 10.7 915.118 10.224V10.112C915.118 9.636 914.969 9.26267 914.67 8.992C914.381 8.712 913.961 8.572 913.41 8.572H910.974V11.764ZM917.79 17L920.59 7.2H923.25L926.036 17H924.482L923.838 14.69H920.002L919.358 17H917.79ZM920.38 13.29H923.46L922.032 8.138H921.808L920.38 13.29ZM927.574 17V7.2H930.486L933.146 15.992H933.37V7.2H934.868V17H931.956L929.296 8.194H929.072V17H927.574ZM940.454 17.196C939.716 17.196 939.063 17.0653 938.494 16.804C937.924 16.5427 937.476 16.16 937.15 15.656C936.832 15.1427 936.674 14.522 936.674 13.794V13.444H938.172V13.794C938.172 14.4847 938.377 15.0027 938.788 15.348C939.208 15.6933 939.763 15.866 940.454 15.866C941.154 15.866 941.681 15.7213 942.036 15.432C942.39 15.1333 942.568 14.7507 942.568 14.284C942.568 13.976 942.484 13.724 942.316 13.528C942.148 13.332 941.91 13.178 941.602 13.066C941.294 12.9447 940.925 12.8327 940.496 12.73L939.978 12.604C939.352 12.4547 938.806 12.2727 938.34 12.058C937.882 11.834 937.528 11.54 937.276 11.176C937.024 10.812 936.898 10.3453 936.898 9.776C936.898 9.19733 937.038 8.70267 937.318 8.292C937.607 7.88133 938.004 7.564 938.508 7.34C939.012 7.116 939.604 7.004 940.286 7.004C940.967 7.004 941.574 7.12067 942.106 7.354C942.647 7.58733 943.072 7.93267 943.38 8.39C943.688 8.84733 943.842 9.42133 943.842 10.112V10.616H942.344V10.112C942.344 9.692 942.255 9.35133 942.078 9.09C941.91 8.82867 941.672 8.63733 941.364 8.516C941.056 8.39467 940.696 8.334 940.286 8.334C939.688 8.334 939.222 8.46 938.886 8.712C938.559 8.95467 938.396 9.29533 938.396 9.734C938.396 10.0327 938.466 10.28 938.606 10.476C938.755 10.6627 938.97 10.8167 939.25 10.938C939.53 11.0593 939.88 11.1667 940.3 11.26L940.818 11.386C941.452 11.526 942.012 11.708 942.498 11.932C942.983 12.1467 943.366 12.4407 943.646 12.814C943.926 13.1873 944.066 13.668 944.066 14.256C944.066 14.844 943.916 15.3573 943.618 15.796C943.328 16.2347 942.913 16.58 942.372 16.832C941.83 17.0747 941.191 17.196 940.454 17.196ZM945.121 17L947.921 7.2H950.581L953.367 17H951.813L951.169 14.69H947.333L946.689 17H945.121ZM947.711 13.29H950.791L949.363 8.138H949.139L947.711 13.29ZM958.436 17.196C957.241 17.196 956.294 16.86 955.594 16.188C954.894 15.5067 954.544 14.5267 954.544 13.248V10.952C954.544 9.67333 954.894 8.698 955.594 8.026C956.294 7.34467 957.241 7.004 958.436 7.004C959.612 7.004 960.517 7.33067 961.152 7.984C961.796 8.63733 962.118 9.52867 962.118 10.658V10.742H960.62V10.616C960.62 9.95333 960.438 9.412 960.074 8.992C959.719 8.572 959.173 8.362 958.436 8.362C957.689 8.362 957.106 8.59067 956.686 9.048C956.266 9.496 956.056 10.1213 956.056 10.924V13.276C956.056 14.0693 956.266 14.6947 956.686 15.152C957.106 15.6093 957.689 15.838 958.436 15.838C959.173 15.838 959.719 15.628 960.074 15.208C960.438 14.7787 960.62 14.2373 960.62 13.584V13.346H962.118V13.542C962.118 14.6713 961.796 15.5627 961.152 16.216C960.517 16.8693 959.612 17.196 958.436 17.196ZM966.135 17V8.572H963.125V7.2H970.657V8.572H967.647V17H966.135ZM972.237 17V7.2H973.749V17H972.237ZM979.684 17.196C978.48 17.196 977.523 16.86 976.814 16.188C976.105 15.5067 975.75 14.5267 975.75 13.248V10.952C975.75 9.67333 976.105 8.698 976.814 8.026C977.523 7.34467 978.48 7.004 979.684 7.004C980.888 7.004 981.845 7.34467 982.554 8.026C983.273 8.698 983.632 9.67333 983.632 10.952V13.248C983.632 14.5267 983.273 15.5067 982.554 16.188C981.845 16.86 980.888 17.196 979.684 17.196ZM979.684 15.838C980.459 15.838 981.056 15.614 981.476 15.166C981.896 14.7087 982.106 14.088 982.106 13.304V10.896C982.106 10.112 981.896 9.496 981.476 9.048C981.056 8.59067 980.459 8.362 979.684 8.362C978.928 8.362 978.335 8.59067 977.906 9.048C977.477 9.496 977.262 10.112 977.262 10.896V13.304C977.262 14.088 977.477 14.7087 977.906 15.166C978.335 15.614 978.928 15.838 979.684 15.838ZM985.632 17V7.2H988.544L991.204 15.992H991.428V7.2H992.926V17H990.014L987.354 8.194H987.13V17H985.632ZM998.512 17.196C997.774 17.196 997.121 17.0653 996.552 16.804C995.982 16.5427 995.534 16.16 995.208 15.656C994.89 15.1427 994.732 14.522 994.732 13.794V13.444H996.23V13.794C996.23 14.4847 996.435 15.0027 996.846 15.348C997.266 15.6933 997.821 15.866 998.512 15.866C999.212 15.866 999.739 15.7213 1000.09 15.432C1000.45 15.1333 1000.63 14.7507 1000.63 14.284C1000.63 13.976 1000.54 13.724 1000.37 13.528C1000.21 13.332 999.968 13.178 999.66 13.066C999.352 12.9447 998.983 12.8327 998.554 12.73L998.036 12.604C997.41 12.4547 996.864 12.2727 996.398 12.058C995.94 11.834 995.586 11.54 995.334 11.176C995.082 10.812 994.956 10.3453 994.956 9.776C994.956 9.19733 995.096 8.70267 995.376 8.292C995.665 7.88133 996.062 7.564 996.566 7.34C997.07 7.116 997.662 7.004 998.344 7.004C999.025 7.004 999.632 7.12067 1000.16 7.354C1000.7 7.58733 1001.13 7.93267 1001.44 8.39C1001.75 8.84733 1001.9 9.42133 1001.9 10.112V10.616H1000.4V10.112C1000.4 9.692 1000.31 9.35133 1000.14 9.09C999.968 8.82867 999.73 8.63733 999.422 8.516C999.114 8.39467 998.754 8.334 998.344 8.334C997.746 8.334 997.28 8.46 996.944 8.712C996.617 8.95467 996.454 9.29533 996.454 9.734C996.454 10.0327 996.524 10.28 996.664 10.476C996.813 10.6627 997.028 10.8167 997.308 10.938C997.588 11.0593 997.938 11.1667 998.358 11.26L998.876 11.386C999.51 11.526 1000.07 11.708 1000.56 11.932C1001.04 12.1467 1001.42 12.4407 1001.7 12.814C1001.98 13.1873 1002.12 13.668 1002.12 14.256C1002.12 14.844 1001.97 15.3573 1001.68 15.796C1001.39 16.2347 1000.97 16.58 1000.43 16.832C999.888 17.0747 999.249 17.196 998.512 17.196Z" fill="#13A688"/>
<rect y="48" width="1158" height="4" fill="url(#paint0_linear_1_264)"/>
<defs>
<linearGradient id="paint0_linear_1_264" x1="-2.34998e-07" y1="50.0019" x2="1166" y2="52.0037" gradientUnits="userSpaceOnUse">
<stop stop-color="#EE5D4A"/>
<stop offset="0.345871" stop-color="#FF44DD"/>
<stop offset="0.596338" stop-color="#635DFF"/>
<stop offset="0.844672" stop-color="#13A688"/>
</linearGradient>
</defs>
</svg>
