<svg width="105" height="25" viewBox="0 0 105 25" fill="none" xmlns="http://www.w3.org/2000/svg">
<g clip-path="url(#clip0_1_461)">
<path d="M24.66 23.3395H18.8375L17.0553 19.0498H7.35116L5.72754 23.3395H0L8.75043 1.67403H15.0185L24.66 23.3395ZM11.9643 6.85133L8.78174 15.2683H15.464L11.9643 6.85133ZM45.814 1.67403H50.5232V23.3395H45.1128V9.80666L39.258 16.6038H38.4305L32.5767 9.80666V23.3385H27.1664V1.67507H31.8755L38.8438 9.71186L45.814 1.67507V1.67403ZM64.23 1.67403C72.153 1.67403 76.2256 6.59715 76.2256 12.538C76.2256 18.7643 72.2813 23.3395 63.6259 23.3395H54.6521V1.67403H64.2311H64.23ZM60.0614 19.3685H63.5935C69.0341 19.3685 70.6577 15.6829 70.6577 12.5057C70.6577 8.78891 68.6522 5.64399 63.5299 5.64399H60.0614V19.3685ZM86.9889 6.8107L80.1678 0H105V24.7927L98.1789 17.982V6.8107H86.9889ZM86.9805 8.17638L79.9581 15.1871V25H89.7874L96.8099 17.9893H86.9805V8.17742V8.17638Z" fill="#1E212A"/>
</g>
<defs>
<clipPath id="clip0_1_461">
<rect width="105" height="25" fill="white"/>
</clipPath>
</defs>
</svg>
