<svg width="161" height="33" viewBox="0 0 161 33" fill="none" xmlns="http://www.w3.org/2000/svg">
<g clip-path="url(#clip0_1_471)">
<path d="M14.8903 24.5026C19.8001 24.5026 23.7805 20.5284 23.7805 15.6274C23.7805 10.7252 19.8001 6.75223 14.8903 6.75223C9.97915 6.75223 6 10.7252 6 15.6274C6 20.5284 9.97915 24.5026 14.8903 24.5026ZM46.8669 4.29061C43.057 4.29061 37.2287 2.50124 37.2287 2.50124C37.2287 2.50124 35.9595 5.78216 35.9595 10.2568C35.9595 14.7327 39.6947 26.5157 47.241 29.5C47.241 29.5 58 22.712 58 10.8537C58 3.76912 56.954 2.5 56.954 2.5C56.954 2.5 50.6781 4.29184 46.8669 4.29184V4.29061Z" fill="white"/>
<path d="M69 13.7329V0.947133H73.8445C76.1567 0.796857 78.4664 1.7638 78.4664 4.29139C78.4664 5.70424 77.4975 6.66994 76.2301 7.11585C77.8694 7.48784 79.0634 8.60383 79.0634 10.4613C79.0634 12.9889 75.8582 13.9559 73.9204 13.8068H69V13.7329ZM73.9204 6.07623C75.1119 6.07623 75.7089 5.6291 75.7089 4.58825C75.7089 3.5474 75.0373 3.1015 73.9204 3.1015H71.7587V6.15014H73.9204V6.07623ZM73.9204 11.5773C75.1866 11.5773 76.0821 11.3544 76.0821 9.86763C76.0821 8.37964 75.1866 8.15669 73.9204 8.15669H71.7587V11.5773H73.9204ZM83.4602 0.947133V13.7329H80.7786V0.947133H83.4626H83.4602ZM91.5858 12.6182C90.9888 13.4361 90.1692 13.9559 88.8271 13.9559C87.9341 13.9559 86.2189 13.287 85.9204 12.022C85.7711 11.5022 85.7711 10.9072 85.7711 10.6104V4.81243H88.4552V10.1645C88.4552 11.1314 88.7537 12.2462 90.0211 12.2462C90.8408 12.2462 91.5858 11.5022 91.5858 10.1645V4.81243H94.2687V12.0971C94.2687 12.6182 94.3433 13.138 94.3433 13.659H91.6604L91.5858 12.6182ZM98.9652 10.0154C98.9652 11.2053 99.1144 12.2449 100.531 12.2449C101.424 12.2449 101.947 11.8754 102.17 11.0563H104.556C104.332 13.2858 102.617 13.9559 100.531 13.9559C97.4739 13.9559 96.2065 12.2462 96.2065 9.27268C96.2065 6.59604 97.7724 4.51434 100.53 4.51434C102.169 4.51434 103.586 5.10929 104.332 6.66994C104.556 7.19098 104.704 7.71079 104.779 8.23183C104.853 8.75164 104.853 9.34659 104.853 9.94153H98.9652V10.0154ZM102.096 8.23183C102.096 7.26489 101.797 6.37186 100.53 6.37186C99.3371 6.37186 99.0398 7.26489 98.9639 8.23183H102.096ZM113.873 5.03538C113.873 3.69645 113.053 2.58169 111.413 2.58169C109.475 2.58169 108.954 5.48129 108.954 7.26489C108.954 9.04973 109.475 11.9481 111.413 11.9481C113.052 11.9481 113.872 10.8333 113.872 9.49563H116.78C116.631 12.6921 114.321 13.8807 111.413 13.8807C107.687 13.8807 106.046 10.9824 106.046 7.19098C106.046 3.4735 107.685 0.5 111.413 0.5C114.394 0.5 116.705 1.68989 116.78 4.88511H113.873V5.03538ZM120.655 4.81243L120.73 6.44699C121.326 5.03538 122.444 4.66339 123.786 4.7373V7.11585H122.593C122.147 7.11585 121.55 7.41394 121.327 7.78593C121.029 8.30574 120.954 8.75164 120.954 9.34659V13.7317H118.27V6.59727C118.27 6.22528 118.196 5.48252 118.196 4.81366H120.655V4.81243ZM129.601 14.0298C126.693 14.0298 124.904 12.0971 124.904 9.27268C124.904 6.44699 126.619 4.51434 129.601 4.51434C132.507 4.51434 134.296 6.44823 134.296 9.27268C134.296 12.0971 132.507 14.0298 129.601 14.0298ZM129.601 12.2462C131.24 12.2462 131.539 10.6843 131.539 9.27268C131.539 7.85984 131.24 6.29918 129.601 6.29918C127.96 6.29918 127.663 7.85984 127.663 9.27268C127.736 10.6843 127.96 12.2462 129.601 12.2462ZM140.706 7.19098C140.706 6.59604 140.111 6.29918 139.514 6.29918C138.769 6.29918 138.47 6.5209 138.47 7.11585C138.47 8.52869 143.613 7.71079 143.613 11.0575C143.613 12.9889 141.229 13.9559 139.588 13.9559C137.501 13.9559 135.713 13.138 135.638 11.1314H138.098C138.173 11.8003 138.769 12.2462 139.588 12.2462C140.333 12.2462 140.856 11.9481 140.856 11.2792C140.856 10.5365 139.588 10.2384 139.067 10.1645C137.352 9.79249 135.787 9.34659 135.787 7.34003C135.787 5.48005 138.024 4.66339 139.588 4.66339C141.451 4.66339 143.092 5.33224 143.167 7.34003H140.706V7.19098ZM149.577 7.19098C149.577 6.59604 148.98 6.29918 148.384 6.29918C147.639 6.29918 147.341 6.5209 147.341 7.11585C147.341 8.52869 152.484 7.71079 152.484 11.0575C152.484 12.9889 150.098 13.9559 148.459 13.9559C146.372 13.9559 144.582 13.138 144.509 11.1314H146.968C147.042 11.8003 147.639 12.2462 148.459 12.2462C149.204 12.2462 149.726 11.9481 149.726 11.2792C149.726 10.5365 148.459 10.2384 147.937 10.1645C146.223 9.79249 144.657 9.34659 144.657 7.34003C144.657 5.48005 146.893 4.66339 148.459 4.66339C150.322 4.66339 151.961 5.33224 152.036 7.34003H149.577V7.19098ZM69 31.1292V18.3422H73.8445C76.1567 18.1944 78.4664 19.1601 78.4664 21.6877C78.4664 23.0993 77.4975 24.0663 76.2301 24.5122C77.8694 24.8842 79.0634 25.9989 79.0634 27.8577C79.0634 30.3852 75.8582 31.3522 73.9204 31.2031H69V31.1292ZM73.9204 23.4713C75.1119 23.4713 75.7089 23.0254 75.7089 21.9846C75.7089 20.9437 75.0373 20.4978 73.9204 20.4978H71.7587V23.5464L73.9204 23.4725V23.4713ZM73.9204 28.9724C75.1866 28.9724 76.0821 28.7507 76.0821 27.2627C76.0821 25.776 75.1866 25.553 73.9204 25.553H71.7587V28.9724H73.9204ZM83.4602 18.3422V31.128H80.7786V18.3422H83.4626H83.4602ZM91.5858 30.0133C90.9888 30.8311 90.1692 31.3522 88.8271 31.3522C87.9341 31.3522 86.2189 30.6821 85.9204 29.3444C85.7711 28.8246 85.7711 28.2296 85.7711 27.9316V22.1336H88.4552V27.5608C88.4552 28.5265 88.7537 29.6425 90.0211 29.6425C90.8408 29.6425 91.5858 28.8985 91.5858 27.5608V22.2075H94.2687V29.4934C94.2687 30.0133 94.3433 30.5343 94.3433 31.0541H91.6604L91.5858 30.0133ZM98.9652 27.4118C98.9652 28.6016 99.1144 29.6413 100.531 29.6413C101.424 29.6413 101.947 29.2705 102.17 28.4526H104.556C104.332 30.6821 102.617 31.3522 100.531 31.3522C97.4739 31.3522 96.2065 29.6425 96.2065 26.6678C96.2065 23.9924 97.7724 21.9107 100.53 21.9107C102.169 21.9107 103.586 22.5056 104.332 24.0663C104.556 24.5861 104.704 25.1071 104.779 25.6269C104.853 26.148 104.853 26.7429 104.853 27.3378L98.9652 27.4118ZM102.096 25.6281C102.096 24.6612 101.797 23.7682 100.53 23.7682C99.3371 23.7682 99.0398 24.6612 98.9639 25.6281H102.096ZM113.5 21.9846C113.425 20.7208 112.68 20.0519 111.338 20.0519C110.295 20.0519 109.326 20.5717 109.326 21.6877C109.326 23.0993 110.593 23.2484 111.711 23.4713C113.649 23.9924 116.556 24.5122 116.556 27.1149C116.556 30.3113 113.798 31.4261 111.04 31.4261C108.133 31.4261 106.046 30.3113 106.121 27.041H108.953C108.879 28.4526 109.699 29.4183 111.114 29.4183C112.233 29.4183 113.649 29.0475 113.649 27.7086C113.649 26.2219 111.786 26.074 110.743 25.776C108.953 25.3301 106.494 24.5122 106.494 22.2075C106.494 19.3079 109.177 17.9702 111.859 17.9702C114.32 17.9702 116.257 19.3079 116.257 21.9107L113.5 21.9846ZM118.419 31.1292V18.3422H121.103V23.3235C121.624 22.5056 122.519 21.9846 123.861 21.9846C124.755 21.9846 126.47 22.6534 126.767 23.9184C126.917 24.4383 126.917 25.0332 126.917 25.3301V31.1292H124.308V25.776C124.308 24.8102 124.01 23.7682 122.743 23.7682C121.923 23.7682 121.177 24.5122 121.177 25.776V31.1292H118.419ZM132.06 18.3422V20.6456H129.228V18.3422H132.06ZM131.91 22.2075V31.1292H129.228V22.2075H131.91ZM136.607 27.4118C136.607 28.6016 136.756 29.6413 138.173 29.6413C139.067 29.6413 139.588 29.2705 139.812 28.4526H142.198C141.974 30.6821 140.26 31.3522 138.173 31.3522C135.116 31.3522 133.849 29.6425 133.849 26.6678C133.849 23.9924 135.414 21.9107 138.173 21.9107C139.812 21.9107 141.229 22.5056 141.974 24.0663C142.198 24.5861 142.347 25.1071 142.422 25.6269C142.495 26.148 142.495 26.7429 142.495 27.3378L136.607 27.4118ZM139.663 25.6281C139.663 24.6612 139.364 23.7682 138.098 23.7682C136.905 23.7682 136.607 24.6612 136.532 25.6281H139.663ZM146.744 18.3422V31.128H144.061V18.3422H146.744ZM155.241 18.3422H157.925V29.4183C157.925 30.0133 158 30.6082 158 31.2031H155.316C155.316 30.7572 155.241 30.3852 155.241 29.9393C154.646 30.9802 153.677 31.5 152.484 31.5C149.874 31.5 148.608 29.0475 148.608 26.7429C148.608 24.3643 150.024 21.9846 152.782 21.9846C153.677 21.9846 154.646 22.5056 155.167 23.2484L155.241 18.3422ZM153.303 29.6425C154.72 29.6425 155.241 27.9316 155.241 26.6678C155.241 25.4791 154.795 23.6943 153.303 23.6943C151.59 23.6943 151.366 25.2561 151.366 26.6678C151.366 28.0067 151.59 29.6425 153.303 29.6425ZM153.751 13.7329C153.535 13.7323 153.328 13.6462 153.175 13.4931C153.022 13.3401 152.934 13.1324 152.932 12.915C152.932 12.4691 153.303 12.0971 153.751 12.0971C154.198 12.0971 154.571 12.4691 154.571 12.915C154.571 13.3609 154.272 13.7329 153.751 13.7329ZM153.751 11.8742C153.497 11.8773 153.253 11.9799 153.073 12.1604C152.892 12.3408 152.788 12.5849 152.782 12.8411C152.782 13.3609 153.229 13.8068 153.751 13.8068C154.005 13.8034 154.248 13.7009 154.429 13.5208C154.61 13.3407 154.714 13.097 154.72 12.8411C154.714 12.585 154.61 12.3411 154.43 12.1607C154.249 11.9803 154.006 11.8776 153.751 11.8742Z" fill="#1E212A"/>
<path d="M153.369 13.0263H153.148V12.6506H153.443C153.59 12.6506 153.737 12.6506 153.737 12.7999C153.737 13.0263 153.516 13.0263 153.369 13.0263ZM153.884 12.8011C153.884 12.5759 153.81 12.5 153.516 12.5H153V13.6273H153.148V13.101H153.369L153.737 13.6273H153.884L153.59 13.101C153.737 13.101 153.884 13.0263 153.884 12.8011ZM159.042 31.4241C158.829 31.4231 158.625 31.3362 158.473 31.1819C158.322 31.0277 158.235 30.8184 158.232 30.5991C158.232 30.1475 158.601 29.773 159.042 29.773C159.485 29.773 159.854 30.1475 159.854 30.5991C159.85 30.8186 159.764 31.0281 159.612 31.1824C159.46 31.3367 159.256 31.4235 159.042 31.4241ZM159.042 29.5477C158.791 29.5512 158.551 29.6548 158.372 29.8367C158.193 30.0186 158.09 30.2647 158.084 30.5232C158.084 31.0496 158.527 31.5 159.042 31.5C159.294 31.4968 159.534 31.3932 159.713 31.2109C159.892 31.0287 159.995 30.7821 160 30.5232C159.994 30.2646 159.891 30.0184 159.713 29.8364C159.534 29.6544 159.294 29.5509 159.042 29.5477Z" fill="#1E212A"/>
<path d="M159.334 29.9663H159.083V29.6326H159.417C159.584 29.6326 159.75 29.6326 159.75 29.7663C159.75 29.9663 159.584 29.9663 159.334 29.9663ZM160 29.7674C160 29.5663 159.917 29.5 159.584 29.5H159V30.5H159.167V30.0337H159.417L159.75 30.5H159.917L159.584 30.0337C159.833 30.0337 160 29.9674 160 29.7663V29.7674Z" fill="#1E212A"/>
<path d="M15.1855 18.475C15.1113 18.475 15.1113 18.475 15.0371 18.5496L12.2214 22.8998C13.1365 23.293 14.1187 23.4969 15.1113 23.5C16.1484 23.5 17.1113 23.2751 18 22.8998L15.1855 18.5508C15.2584 18.4763 15.1855 18.4763 15.1855 18.4763V18.475ZM12.4439 14.8753L8.22145 14.5C8.07035 15.0622 7.99589 15.643 8.00018 16.2259C8.00018 18.0252 8.66642 19.6753 9.70227 20.9502L12.6664 15.2505C12.8147 15.1014 12.7405 14.9511 12.4439 14.8753Z" fill="white"/>
<path d="M21.6707 8.82926V0.5H8.3293V8.82926H0V22.1707H8.3293V30.5H21.6707V22.1707H30V8.82926H21.6707ZM15.0375 7.28065C18.3535 7.28065 21.2291 9.1981 22.4812 12.0718H16.586C15.7755 12.0718 15.4065 11.5564 15.3327 11.1876C15.3327 10.7455 15.4065 10.5977 15.7755 10.0823C15.8878 9.92606 15.956 9.742 15.973 9.54971C15.99 9.35742 15.9551 9.16408 15.872 8.99022C15.7888 8.81636 15.6606 8.66848 15.5009 8.5623C15.3412 8.45611 15.156 8.39559 14.9649 8.38715C14.0056 8.38715 13.7116 9.49243 14.1544 10.0823C14.5221 10.5977 14.5959 10.7455 14.5959 11.1876C14.5959 11.5564 14.227 12.0718 13.3426 12.0718H7.44495C8.84345 9.27137 11.7203 7.28065 15.0375 7.28065ZM6.78079 15.5366C6.78079 14.5046 7.00218 13.5459 7.29736 12.6617L12.826 13.1783C13.858 13.3249 14.0044 14.3569 13.7092 14.9468L9.9504 22.0962C8.03412 20.5489 6.78079 18.1893 6.78079 15.5366ZM19.533 22.4651C18.2059 23.3493 16.6586 23.7914 14.9637 23.7914C13.2676 23.7914 11.7203 23.276 10.3932 22.4651L14.4471 16.4941C14.7423 16.052 15.1851 16.1265 15.4791 16.4941L19.533 22.4651ZM20.1234 22.023L16.3634 14.9468C16.0694 14.3569 16.2158 13.3249 17.2478 13.1783L22.7764 12.6617C23.1454 13.5459 23.293 14.5791 23.293 15.5366C23.2949 16.791 23.0099 18.0288 22.4601 19.1537C21.9103 20.2786 21.1106 21.2601 20.1234 22.0217V22.023Z" fill="#1E212A"/>
<path d="M21.165 11.8218C20.2463 10.7378 19.0226 9.8861 17.6471 9.5C18.1051 10.1965 17.7224 11.2022 17.3408 11.6678C17.2655 11.7448 17.3408 11.8218 17.3408 11.8218H21.165ZM18.4114 15.3057C18.1051 15.3057 18.1051 15.4596 18.1817 15.6161L21.2403 21.5C22.3108 20.1839 22.9999 18.4804 22.9999 16.6218C23.0037 16.0203 22.9265 15.4212 22.7702 14.8413L18.4114 15.3057ZM13.5167 9.57696C12.1411 9.96435 10.9174 10.8161 10 11.8987H13.8229C13.8995 11.8987 13.8995 11.8218 13.8229 11.7448C13.4414 11.2022 13.0586 10.2735 13.5179 9.57696H13.5167Z" fill="white"/>
<path d="M57.1732 0.5C53.9491 2.10881 50.7225 2.98778 46.9846 2.98778C43.2468 2.98778 40.0214 2.10881 36.7948 0.5C34.6702 4.67054 34.3767 11.4016 36.2101 17.0367C37.969 22.4511 41.4133 27.4267 46.9846 30.5C52.6293 27.4267 56.0003 22.4499 57.7603 17.0367C59.6659 11.4016 59.3002 4.67054 57.1732 0.5ZM55.7079 16.3771C54.0958 20.9878 51.6753 25.0844 47.058 27.9383C42.4395 25.0844 39.948 20.9878 38.4081 16.3771C37.0162 12.2794 36.6492 7.4505 38.1879 3.72004C40.5339 4.52384 41.8536 4.74328 43.1 4.96272C44.273 5.18216 45.2992 5.25611 47.058 5.25611C48.7435 5.25611 49.8431 5.10942 51.016 4.96272C52.2624 4.74449 53.6555 4.52384 55.9269 3.71883C57.3934 7.4505 57.0998 12.2806 55.7079 16.3771Z" fill="#1E212A"/>
<path d="M51.1785 6.39158C49.8162 6.53935 48.3768 6.68959 47.0145 6.68959C45.6496 6.68959 44.2873 6.54058 42.8479 6.39158C41.4464 6.15781 40.0565 5.8603 38.6827 5.5C37.6982 8.32373 37.8498 11.8913 38.6827 15.013C40.122 20.9597 43.8324 25.4927 47.0132 27.5C50.2699 25.4927 53.9056 20.9597 55.3438 15.013C56.102 11.8174 56.3282 8.32373 55.3438 5.5C53.9056 5.8719 52.6179 6.24257 51.1797 6.39158H51.1785ZM46.2562 24.7489C46.1804 25.0469 46.3308 25.1959 46.3308 25.3437C46.2562 25.5666 46.1046 25.4927 46.0288 25.3437C45.8771 25.1221 45.8013 24.973 45.8013 24.6011C45.7267 24.0064 46.0288 23.7835 46.1804 23.6345C46.3321 23.4867 46.4837 23.4128 46.4837 23.4128L46.5583 24.3783C46.4079 24.3783 46.2562 24.4521 46.2562 24.7502V24.7489ZM47.544 25.7156C47.544 25.8634 47.4681 26.0124 47.1649 26.0124C46.9374 26.0124 46.7857 25.9385 46.7857 25.6417C46.7112 24.4521 46.7112 22.2971 46.7112 22.2971C46.7112 22.2971 47.0132 22.371 47.2407 22.5188C47.3153 22.5188 47.4681 22.669 47.6198 22.8168C47.6198 22.8907 47.6944 22.8907 47.6944 22.9658C47.6198 23.7835 47.544 25.3437 47.544 25.7156ZM48.5284 23.4867C48.3457 23.6204 48.1403 23.7205 47.9218 23.7822V22.8919C47.9218 22.8919 47.9977 22.818 47.9977 22.669C47.9231 22.52 47.3165 22.0742 47.0132 21.9252C46.6423 21.7789 46.2629 21.6547 45.8771 21.5533C45.1189 21.2565 44.8168 20.5878 45.1189 19.844C45.196 19.5472 45.5751 19.3982 45.7255 19.3243C45.8771 19.2505 46.1804 19.1753 46.1804 19.1753L46.255 20.2159C46.255 20.2159 46.1804 20.2159 46.1046 20.3637C46.03 20.5127 46.1792 20.6617 46.2562 20.6617C46.7857 20.8846 47.4681 21.1814 47.9977 21.4794C48.6801 21.8513 48.9063 22.1481 48.9063 22.669C48.9821 23.0397 48.7546 23.3377 48.5284 23.4854V23.4867ZM46.6353 18.6557C47.1649 18.7296 47.3165 18.7296 47.7702 18.8034L47.6956 20.8846L47.2407 20.6629L46.7857 20.4388L46.6353 18.6544V18.6557ZM49.6645 19.1015C49.5887 19.4721 49.3612 19.7701 48.9821 19.993C48.6042 20.2147 48.1493 20.2147 48.1493 20.2147V18.9524C48.1493 18.9524 48.2251 18.9524 48.301 18.8786C48.3755 18.8047 48.3755 18.7296 48.3755 18.6557C48.3755 18.5818 48.301 18.5067 48.2251 18.4328C48.0735 18.3589 47.9218 18.3589 47.846 18.3589L46.0288 18.1348C44.9685 17.987 44.1357 17.3171 44.2115 16.2765C44.2861 15.6078 44.9697 15.3849 45.4992 15.162L45.8771 15.9046C45.9529 16.2026 46.0288 16.3516 46.0288 16.3516C46.0288 16.3516 45.8013 16.4255 45.8013 16.5733C45.8013 16.7223 46.0288 16.7974 46.1046 16.7974C46.8628 16.8713 47.9218 17.0191 48.4526 17.2432C48.8305 17.391 49.1338 17.54 49.36 17.838C49.6645 18.3577 49.7403 18.7296 49.6645 19.1015ZM46.1804 14.2704C46.1804 14.2704 46.4079 14.2704 47.089 14.3443C47.544 14.3443 47.9218 14.4921 47.9218 14.4921L47.8473 16.7223C47.3165 16.6484 47.0145 16.5745 46.5595 16.5006C46.4079 15.6817 46.1804 15.3849 45.8771 14.7901C45.8025 14.6423 45.8771 14.5685 45.8771 14.5685C45.9529 14.4933 46.2562 14.4182 46.2562 14.4182L46.1804 14.2704ZM48.2251 16.4994C48.2251 16.4994 48.2997 15.4588 48.2997 14.9391C48.6042 14.8652 48.6801 14.5672 48.5284 14.3443C48.4526 14.1966 48.2251 14.1214 48.1493 14.1214C47.544 13.9737 47.0132 13.9737 46.4079 13.8985C45.8771 13.8247 45.4234 13.7508 44.9685 13.6757C43.984 13.4528 43.0754 12.9318 42.6205 12.0403C42.0909 10.9258 42.5459 9.51332 43.6807 8.99365C44.5135 8.54663 45.4234 8.62175 46.2562 8.99365C46.5595 9.06753 46.7099 9.36432 46.8616 9.58721C46.9374 9.6611 47.089 9.73622 47.1649 9.88522C47.2394 9.95911 47.0903 9.95911 47.0903 9.95911C46.9374 10.033 46.2562 10.033 46.1046 9.95911H45.1959C45.4234 10.1069 45.7255 10.2571 46.0288 10.4049C46.1804 10.4788 46.3321 10.4788 46.4837 10.5539C46.5583 10.5539 46.7099 10.6278 46.7099 10.7017C46.7099 10.7768 46.5595 10.7768 46.4079 10.8507C46.1804 10.9246 45.8771 10.9246 45.5751 10.8507C45.1201 10.7768 44.8927 10.48 44.5894 10.629C44.3631 10.7768 44.3631 10.9997 44.4377 11.2977C44.5135 11.7435 44.9685 11.8913 45.3476 12.0403C46.6341 12.4861 48.0735 12.188 49.2854 12.858C49.7403 13.0809 50.3457 13.6018 50.4215 14.1214C50.8006 16.2026 48.2251 16.4994 48.2251 16.4994ZM50.4973 9.58721C50.4215 9.8101 50.3457 9.8101 50.194 9.95911C49.8907 10.2571 49.4358 10.5539 48.9821 10.9258C48.6801 11.1475 48.4526 11.2977 48.2251 11.6684C48.1653 11.7361 48.1144 11.811 48.0735 11.8913C47.3153 11.7435 46.6353 11.7435 46.0288 11.5945V10.9997C46.0288 10.9997 46.7099 10.9997 46.787 10.5539C46.787 10.5539 46.787 10.4061 46.7099 10.331C46.5988 10.2505 46.4687 10.1996 46.332 10.1832C46.8616 10.2571 47.3923 10.4788 47.9231 10.7029C47.9231 10.629 47.846 10.4049 47.846 10.4049C47.7434 10.2975 47.6125 10.2207 47.4681 10.1832C47.1649 10.1081 46.332 10.0342 46.332 10.0342H47.0132C47.1649 10.0342 47.3923 9.96034 47.3923 9.88522C47.4669 9.81134 47.3923 9.66233 47.2407 9.51332L47.0132 9.29043C46.9386 9.14265 46.7857 8.99365 46.7099 8.84464C46.5595 8.62175 45.9529 8.39885 45.9529 8.39885C45.9529 8.39885 45.8784 8.02695 46.0288 7.87795C46.1046 7.73017 46.4079 7.73017 46.4837 7.80406C46.8616 8.02695 47.3911 8.24985 47.9218 8.39885C48.0735 8.47274 48.0735 8.47274 48.0735 8.69563C48.1493 9.06753 47.9989 9.58721 48.0735 9.8101C48.0735 9.88399 48.2251 9.88399 48.2251 9.88399C48.7546 9.58844 49.0579 9.14142 49.5887 8.91853C49.9666 8.77075 50.649 9.0663 50.4961 9.58721H50.4973Z" fill="#1E212A"/>
<path d="M45.2667 8.64892C45.4 8.79662 45.4 8.94554 45.6 8.94554C45.7333 8.94554 45.8 8.87169 45.8667 8.79785H46C45.8 8.57508 45.3333 8.57508 45 8.5C45.1333 8.64892 45.2 8.57385 45.2667 8.64892Z" fill="#1E212A"/>
</g>
<defs>
<clipPath id="clip0_1_471">
<rect width="161" height="32" fill="white" transform="translate(0 0.5)"/>
</clipPath>
</defs>
</svg>
