<svg width="93" height="41" viewBox="0 0 93 41" fill="none" xmlns="http://www.w3.org/2000/svg">
<g clip-path="url(#clip0_1_486)">
<path d="M31.9395 23.2318H33.0593V16.3701L31.9909 16.5263V15.2792C32.7545 15.0717 33.3652 14.6556 33.9747 14.1357H34.9941V23.2843H36.1139V24.8438H31.9909V23.233H31.9395V23.2318ZM40.1354 20.3727C40.9003 21.1012 41.3066 21.6723 41.3066 22.3495C41.3066 23.0243 40.9003 23.4917 40.3386 23.4917C39.7793 23.4917 39.4733 23.0768 39.4733 22.2446C39.5238 21.5709 39.7527 20.9238 40.1354 20.3727ZM40.6445 18.0346C40.0852 17.411 39.8307 16.9424 39.8307 16.3713C39.8307 15.7465 40.1868 15.3316 40.4916 15.3316C40.9505 15.3316 41.2564 15.7465 41.2564 16.4226C41.2564 16.9949 41.0521 17.5147 40.6445 18.0334V18.0346ZM39.3718 19.4892C38.3535 20.3214 37.8444 21.1536 37.8444 22.2446C37.8444 23.8554 38.8627 24.9475 40.39 24.9475C41.9675 24.9475 43.0371 23.9078 43.0371 22.0884C43.0371 20.8925 42.528 19.9053 41.5612 18.9181C42.4264 18.0858 42.834 17.3073 42.834 16.2664C42.834 14.863 41.9173 13.8746 40.4916 13.8746C39.1686 13.8746 38.1492 14.9668 38.1492 16.5788C38.1492 17.6697 38.5579 18.6581 39.3718 19.4892ZM45.6329 19.3854V18.2945C45.6329 16.2664 45.6842 15.3829 46.2447 15.3829C46.8542 15.3829 46.8542 16.2664 46.8542 18.2933V20.5289C46.8542 22.5045 46.8041 23.4405 46.2447 23.4405C45.6842 23.4405 45.6329 22.5045 45.6329 20.5289V19.3854ZM43.6478 19.4379C43.6478 23.1281 44.4629 25 46.2447 25C47.9239 25 48.8405 23.1281 48.8405 19.4379C48.8405 15.7465 47.9752 13.9271 46.1934 13.9271C44.5644 13.9271 43.6478 15.7465 43.6478 19.4379ZM51.7422 19.3854V18.2945C51.7422 16.2664 51.7936 15.3829 52.3529 15.3829C52.9134 15.3829 52.9636 16.2664 52.9636 18.2933V20.5289C52.9636 22.5045 52.9134 23.4405 52.3541 23.4405C51.7924 23.4405 51.7422 22.5045 51.7422 20.5289V19.3854ZM49.7571 19.4379C49.7571 23.1281 50.6224 25 52.4043 25C54.0834 25 55 23.1281 55 19.4379C55 15.7465 54.1348 13.9271 52.3529 13.9271C50.6726 13.9271 49.7571 15.7465 49.7571 19.4379ZM37.4883 19.4892C37.4883 19.9578 37.082 20.3727 36.6231 20.3727C36.3957 20.3659 36.1794 20.2707 36.0186 20.1064C35.8577 19.9422 35.7644 19.7213 35.7578 19.4892C35.7578 19.0218 36.1641 18.6057 36.6231 18.6057C37.1322 18.6057 37.4883 19.0206 37.4883 19.4892ZM25.0163 14.3957C24.0997 16.6825 22.6739 18.7106 20.2813 19.6454C19.6719 19.8016 19.0086 19.8528 18.3979 19.6454C17.2781 16.0065 18.6524 11.9002 20.892 8.9373C22.4696 6.65047 24.9649 5.14219 27.7136 4C25.2195 6.9104 26.5424 11.0167 25.0163 14.3957Z" fill="#1E212A"/>
<path d="M22.8528 5.5471C19.0305 8.57871 15.5696 13.9208 16.9642 19.0567C14.6905 18.4923 13.245 16.2325 12.7284 13.9715C12.3149 11.6598 12.8315 9.14307 14.5874 7.49944C16.6028 5.49645 18.8753 3.08226 18.617 0C20.8895 0.821212 22.181 3.28726 22.8528 5.5471ZM21.5092 29.3309H20.1147V26.9674H21.5092V24.8619C21.5092 22.4477 22.5945 21.6252 24.4014 21.6252C24.918 21.6252 25.3836 21.6771 25.9002 21.7278V24.1938H25.3836C24.6075 24.1938 24.3505 24.5025 24.3505 25.2731V27.0192H25.9512V29.3827H24.3505V40.5288H21.6123V29.3309H21.5092ZM26.9334 21.9846H29.6716V40.53H26.9334V21.9834V21.9846ZM35.4559 26.608C38.7616 26.5561 39.6917 29.0222 39.6917 33.7481C39.6917 38.3715 38.6064 40.8882 35.4559 40.8882C32.1502 40.94 31.2201 38.474 31.2201 33.7493C31.2201 29.1247 32.3055 26.608 35.4559 26.608ZM35.4559 38.5258C36.5922 38.5258 36.9548 37.139 36.9548 33.7481C36.9548 30.3583 36.5922 28.9703 35.4559 28.9703C34.1135 28.9703 33.9583 30.9745 33.9583 33.7481C34.0092 36.5216 34.1135 38.5258 35.4559 38.5258ZM40.0022 26.9674H42.7403L43.9797 36.5735H44.0306L45.3742 26.9674H48.3695L49.764 36.5735H49.8162L51.1077 26.9674H53.7428L51.4169 40.477H48.3173L46.9228 30.8708H46.8706L45.5282 40.477H42.3256L40.001 26.9674H40.0022ZM56.6349 34.2618V35.3411C56.6349 36.9328 56.9963 38.474 57.9773 38.474C58.9075 38.474 59.2688 37.6009 59.424 35.9561H61.9039C61.8008 39.0902 60.6124 40.8363 58.0295 40.8363C54.052 40.8363 53.8968 36.9847 53.8968 33.5937C53.8968 29.9471 54.4655 26.608 58.1847 26.608C61.3861 26.608 62.1101 29.3309 62.1101 33.4912V34.2618H56.6349ZM59.4762 32.2069C59.424 30.1521 59.2179 28.9703 58.0816 28.9703C56.9963 28.9703 56.6871 30.409 56.6871 31.6414V32.1551H59.4762V32.2069ZM63.1432 26.9674H65.7783V28.7653H65.8293C66.398 27.4811 67.1729 26.6068 68.3092 26.6068C68.4644 26.6068 68.6705 26.6598 68.8257 26.6598V29.9978C68.5675 29.9978 68.257 29.9471 67.9478 29.9471C66.9655 29.9471 65.9336 30.5621 65.9336 32.4119V40.5276H63.1954V26.9686H63.1432V26.9674ZM71.7701 36.1116V36.5735C71.7701 37.7553 72.2867 38.5258 73.2168 38.5258C74.0426 38.5258 74.6113 38.0121 74.6113 36.934C74.6113 36.0598 74.1469 35.6486 73.6291 35.3917L71.7191 34.5186C70.2203 33.8506 69.4454 32.6688 69.4454 30.7683C69.4454 28.5085 70.5817 26.7105 73.372 26.7105C75.8506 26.7105 77.039 28.0973 77.039 30.5633V31.1289H74.5592C74.5592 29.7928 74.2499 29.074 73.3198 29.074C72.5971 29.074 72.0284 29.5877 72.0284 30.5127C72.0284 31.1795 72.2867 31.6944 73.2168 32.1044L74.8696 32.8232C76.6255 33.5431 77.2464 34.673 77.2464 36.676C77.2464 39.5014 75.5924 40.94 73.2689 40.94C70.1694 40.94 69.3423 39.2445 69.3423 36.6253V36.1623H71.7701V36.1116ZM77.6066 39.7582C77.6066 39.5014 77.7096 39.2952 77.8649 39.0902C78.0332 38.9326 78.2535 38.8413 78.4845 38.8333C78.7428 38.8333 78.949 38.9358 79.1563 39.0902C79.3243 39.2723 79.4166 39.5111 79.4146 39.7582C79.4155 39.8728 79.393 39.9863 79.3486 40.092C79.3042 40.1976 79.2388 40.2933 79.1563 40.3732C79.0685 40.4603 78.9634 40.5282 78.8478 40.5726C78.7321 40.6171 78.6084 40.6371 78.4845 40.6313C78.3692 40.6322 78.2548 40.6099 78.1483 40.5658C78.0418 40.5217 77.9454 40.4566 77.8649 40.3744C77.6587 40.2201 77.6066 40.0151 77.6066 39.7582ZM81.6362 40.5795C80.603 40.5795 80.0864 39.7582 80.0864 38.1653C80.0864 36.4191 80.7049 35.4942 81.6362 35.4942C82.5142 35.4942 82.9786 36.1104 82.9786 37.2403V37.3947H81.9964V37.1897C81.9964 36.6253 81.8945 36.3673 81.6871 36.3673C81.3779 36.3673 81.3779 36.8303 81.3779 37.7034C81.3779 38.9877 81.4289 39.6039 81.7393 39.6039C81.9976 39.6039 82.1516 39.2964 82.1516 38.6271V38.5765L83.0817 38.6283C83.0817 39.9126 82.5142 40.5795 81.6362 40.5795ZM85.1481 36.4179C85.5107 36.4179 85.6137 36.9328 85.6137 38.0628C85.6137 39.1408 85.5107 39.7064 85.1481 39.7064C84.8388 39.7064 84.7358 39.1927 84.7358 38.0628C84.7358 36.9328 84.8388 36.4191 85.1481 36.4191V36.4179ZM83.5474 38.0628C83.5474 39.7582 84.1149 40.6313 85.2002 40.6313C86.2334 40.6313 86.8531 39.7582 86.8531 38.0628C86.8531 36.3673 86.2843 35.4942 85.2002 35.4942C84.064 35.4942 83.5474 36.3673 83.5474 38.0628ZM87.4206 35.5979H88.558V36.0079C88.8673 35.6486 89.1765 35.4436 89.4882 35.4436C89.8495 35.4436 90.1066 35.6486 90.2618 36.0079C90.5723 35.6486 90.8827 35.4436 91.2441 35.4436C91.7607 35.4436 92.019 35.7511 92.019 36.3673V40.3744H90.8827V36.676C90.8827 36.471 90.7784 36.3673 90.6244 36.3673C90.4692 36.3673 90.3661 36.471 90.2618 36.6241V40.3744H89.1256V36.676C89.1256 36.471 89.0225 36.3673 88.8673 36.3673C88.7133 36.3673 88.609 36.471 88.5059 36.6241V40.3744H87.3696V35.5967H87.4218L87.4206 35.5979ZM17.1703 20.1866C17.0151 20.136 16.8599 20.2385 16.809 20.3928C15.5684 22.9614 14.4322 25.6843 13.7094 28.4578C12.8767 25.6847 11.7693 23.0005 10.4037 20.4447C7.71769 15.4619 4.87523 10.531 0.537568 7.39694C0.382349 7.29564 0.174985 7.29564 0.0719093 7.44879C0.0171224 7.53552 -0.00745426 7.63775 0.00196898 7.73974C0.0113922 7.84173 0.054292 7.9378 0.124053 8.01315C3.99848 11.6091 5.96056 17.0537 8.49136 21.8315C10.5068 27.3279 12.4179 33.1319 11.7983 39.1939C11.9013 40.3238 12.7805 41.0944 13.7094 40.9907C14.1217 40.94 14.4322 40.735 14.6917 40.4263C14.9487 40.1176 15.1561 39.7076 15.207 39.2445C14.7978 37.234 14.6418 35.1807 14.7426 33.1319C14.7933 31.3108 15.0532 29.5014 15.5175 27.7391C16.1371 25.3756 17.0151 23.012 17.3243 20.5472C17.3765 20.3928 17.3243 20.2385 17.1703 20.1878V20.1866ZM93 35.9573C93 36.2129 92.7938 36.3673 92.5877 36.3673C92.5333 36.3681 92.4792 36.358 92.4288 36.3377C92.3783 36.3174 92.3325 36.2873 92.2939 36.2491C92.2554 36.2108 92.2249 36.1653 92.2044 36.1152C92.1838 36.0651 92.1735 36.0114 92.1742 35.9573C92.1742 35.7523 92.3803 35.5461 92.5865 35.5461C92.7938 35.5461 93 35.7004 93 35.9561V35.9573ZM92.2773 35.9573C92.2773 36.1623 92.4325 36.2648 92.5865 36.2648C92.6668 36.2594 92.7426 36.2254 92.7996 36.1688C92.8567 36.1123 92.8913 36.0372 92.8969 35.9573C92.8969 35.7523 92.7417 35.6486 92.5877 35.6486C92.3815 35.5967 92.2773 35.7511 92.2773 35.9573ZM92.5356 36.1623H92.4325V35.7523H92.5865C92.6908 35.7523 92.6908 35.7523 92.7417 35.8029C92.7417 35.8029 92.7939 35.8536 92.7939 35.9054C92.7939 35.9573 92.7417 36.0079 92.6908 36.0079C92.7417 36.0079 92.7417 36.0598 92.7417 36.1104C92.7417 36.1623 92.7417 36.2141 92.7939 36.2141H92.6908C92.6908 36.2141 92.6908 36.1623 92.6386 36.1104C92.6386 36.0598 92.5865 36.0598 92.5356 36.0598H92.4834V36.1623H92.5356ZM92.5356 35.9054C92.6386 35.9054 92.6908 35.9054 92.6908 35.8536C92.6908 35.8029 92.6386 35.8029 92.5865 35.8029H92.5356V35.9054Z" fill="#1E212A"/>
</g>
<defs>
<clipPath id="clip0_1_486">
<rect width="93" height="41" fill="white"/>
</clipPath>
</defs>
</svg>
