<svg width="153" height="37" viewBox="0 0 153 37" fill="none" xmlns="http://www.w3.org/2000/svg">
<path fill-rule="evenodd" clip-rule="evenodd" d="M122.432 26.9987L127.043 9.01315H132.141C132.141 9.01315 133.433 8.88666 134.097 9.4182C134.762 9.95102 134.951 10.7726 134.951 10.7726L137.72 19.4766L141.334 9.01188H146.267C146.267 9.01188 147.494 9.01188 148.13 9.51531C148.766 10.0187 148.957 10.7726 148.957 10.7726L153 27H148.21L144.599 13.1684L140.806 23.7124H135.729C135.729 23.7124 135.118 23.7724 134.533 23.3738C133.948 22.9751 133.929 22.6097 133.929 22.6097L130.839 13.1684L127.292 27H122.432V26.9987ZM74.9405 9.0106V12.5985L83.4949 13.1786V26.9974H88.4354V13.1773L96.9899 12.5972V9.0106H74.9405ZM60.7241 9.0106L51.8152 26.9962H57.2924L58.8494 23.6894H68.7823L70.3025 26.9962H75.7481L67.2962 10.19C67.2962 10.19 67.0203 9.57025 66.5418 9.29426C66.2395 9.12547 65.9032 9.02846 65.5582 9.0106H60.7241ZM63.7494 12.895L67.024 20.0337H60.4241L63.7494 12.8937V12.895ZM33 9.00932V26.9962H48.0418L50.0924 22.8563H38.1557V9.0106H33V9.00932ZM105.154 9.0106L96.2456 26.9962H101.722L103.278 23.6894H113.211L114.732 26.9962H120.178L111.725 10.19C111.725 10.19 111.449 9.57025 110.971 9.29426C110.491 9.01699 109.987 9.0106 109.987 9.0106H105.154ZM108.18 12.895L111.453 20.0337H104.854L108.178 12.8937L108.18 12.895Z" fill="#1E212A"/>
<path fill-rule="evenodd" clip-rule="evenodd" d="M2.54975 14.6868L6.50538 13.5488C6.50538 13.5488 6.46358 13.2834 6.32172 13.1533C6.20291 13.0591 6.06817 12.9874 5.924 12.9415L0.425638 10.9296C0.425638 10.9296 0.250846 10.8696 0.122918 10.9423C-0.00374354 11.0125 5.62937e-05 11.1975 5.62937e-05 11.1975V13.7733C5.62937e-05 13.7733 -0.0126098 14.0196 0.342042 14.572C0.696693 15.1244 1.53646 14.9841 1.53646 14.9841L2.54975 14.6881V14.6868ZM18.2988 8.47235L21.9783 6.39661C21.9783 6.39661 22.0341 6.03683 21.8922 5.9067C21.8033 5.8262 21.6971 5.76766 21.5819 5.73574L5.68715 0.0226775C5.68715 0.0226775 5.51235 -0.0360096 5.38443 0.0354356C5.25777 0.105605 5.26157 0.290597 5.26157 0.290597V2.5105C5.26157 2.5105 5.25903 3.02593 5.61368 3.57835C5.96834 4.13205 6.54338 4.27494 6.54338 4.27494L18.2975 8.47235H18.2988ZM18.2988 14.9369L21.9783 13.0168C21.9783 13.0168 22.0569 12.5307 21.915 12.3993C21.8162 12.3141 21.7035 12.2467 21.5819 12.2003L0.425638 4.45994C0.425638 4.45994 0.250846 4.40125 0.122918 4.47269C-0.00374354 4.54286 5.62937e-05 4.72786 5.62937e-05 4.72786V6.94776C5.62937e-05 6.94776 -0.00247695 7.46319 0.352175 8.01561C0.706826 8.56804 1.28187 8.7122 1.28187 8.7122L18.2988 14.9381V14.9369Z" fill="#96989D"/>
<path fill-rule="evenodd" clip-rule="evenodd" d="M21.4229 6.00127C21.4229 6.00127 21.6366 6.03428 21.8164 6.21202C21.9975 6.38976 21.9987 6.60559 21.9987 6.60559V9.53195C21.9987 9.53195 21.9912 9.93187 21.8278 10.2912C21.6656 10.6504 21.4279 10.7355 21.4279 10.7355L20.9338 10.9171L5.1676 16.7C5.1676 16.7 5.09217 16.7241 4.99158 16.7241C4.89352 16.7241 4.81808 16.7 4.81808 16.7L0.42516 15.0889C0.42516 15.0889 0.317035 15.0635 0.161133 14.8185C-0.0123713 14.5442 0.000201454 13.9996 0.000201454 13.9996C0.000201454 13.9996 0.0278615 14.2789 0.183764 14.4122C0.340923 14.5442 0.757081 14.3995 0.757081 14.3995L20.9338 6.99661C20.9338 6.99661 21.7347 6.66653 21.7347 6.33136C21.7347 6.1003 21.4229 6.00127 21.4229 6.00127V6V6.00127ZM21.4229 12.4329C21.4229 12.4329 21.6366 12.4659 21.8164 12.6437C21.9975 12.8214 22 13.0372 22 13.0372V15.9636C22 15.9636 21.9912 16.3635 21.8278 16.7228C21.6656 17.0834 21.4279 17.1672 21.4279 17.1672L20.9338 17.3487L5.1676 23.1329V19.2137L20.9338 13.4308C20.9338 13.4308 21.7347 13.1007 21.7347 12.7656C21.7347 12.5332 21.4229 12.4342 21.4229 12.4342V12.4329ZM13.5964 22.7317C13.7472 22.884 13.7472 23.2192 13.7472 23.2192V25.4067C13.7472 25.4067 13.7384 25.8066 13.5763 26.1659C13.4128 26.5252 13.1752 26.6102 13.1752 26.6102L12.6811 26.7918L5.1676 29.548V25.6276L12.6811 22.8726C12.6811 22.8726 13.4455 22.5793 13.5964 22.7317ZM8.74958 30.9128C8.90045 31.0652 8.90045 31.4003 8.90045 31.4003V33.5891C8.90045 33.5891 8.89165 33.9877 8.7282 34.3483C8.56602 34.7076 8.32839 34.7926 8.32839 34.7926L7.83428 34.9742L5.1676 36V32.0808L7.83303 31.0525C7.83303 31.0525 8.59871 30.7605 8.74958 30.9128Z" fill="#1E212A"/>
</svg>
