<svg width="62" height="59" viewBox="0 0 62 59" fill="none" xmlns="http://www.w3.org/2000/svg">
<g clip-path="url(#clip0_1_466)">
<path d="M42.5623 56.4367H46.2396C46.2396 56.4367 47.8471 56.4245 47.8471 54.0365C47.8471 51.6011 46.2396 51.5962 46.2396 51.5962H42.5623V56.4367ZM19.6182 54.8074C19.2279 54.8074 18.9108 55.1508 18.9108 55.5745C18.9108 55.9983 19.2279 56.3417 19.6182 56.3417L23.9077 56.3405V54.8086H19.6182V54.8074ZM54.5223 54.8074C54.132 54.8074 53.8149 55.1508 53.8149 55.5745C53.8149 55.9983 54.132 56.3417 54.5223 56.3417L58.8118 56.3405V54.8086H54.5223V54.8074ZM53.0258 52.8285H58.874C58.874 52.2891 58.835 51.4342 57.4995 51.4342H51.5V49.0012H58.8118C60.5925 49.0012 62 49.688 62 51.7034L61.9988 58.9939H53.0453L53.1477 59C51.961 59 50.9646 58.0112 50.684 56.6754C49.8876 58.9939 47.9605 58.9927 46.4689 58.989H39.2607V51.1615L29.1193 58.9939H18.1412L18.2424 59C17.2581 59 16.4032 58.3181 15.9824 57.322L15.9812 58.9939H12.8479V52.5619C12.8479 52.5619 12.8381 51.7046 11.877 51.7034H9.56088V58.9939H6.46418V51.7034H3.21135V58.9939H0L0.00609828 49.0012H13.0833C14.5261 49.0012 15.986 49.8975 15.986 51.7034V54.4968C16.408 53.5032 17.2606 52.8249 18.2424 52.8249L18.1229 52.8273H23.9723C23.9723 52.2879 23.9333 51.433 22.5978 51.433H16.5983V49H23.9089C25.6896 49 27.0971 49.6868 27.0971 51.7021V56.7155L37.3373 49H46.4957C48.3984 49 51.0572 49 51.0572 53.9805L51.0548 54.1607C51.5134 53.3534 52.2793 52.8237 53.1465 52.8237L53.027 52.8261L53.0258 52.8285ZM28.218 49.0012H35.5274L32.2904 51.7034H28.2167L28.218 49V49.0012ZM38.3118 58.9866H31.0012L34.2382 56.2832H38.3131L38.3106 58.9866" fill="#1E212A"/>
<path fill-rule="evenodd" clip-rule="evenodd" d="M13.9473 36.1262C12.44 35.1884 11.9605 33.9976 9.67179 33.0427C7.39029 30.0179 6.50498 26.2547 6.50619 22.4914C6.50619 19.743 6.97723 16.9933 7.72122 14.5297L10.0208 19.1635C9.88151 20.2703 9.81534 21.3854 9.82276 22.5012C9.82276 37.8562 19.886 40.9543 30.5 40.9189C41.114 40.9543 51.1772 37.8562 51.1772 22.5C51.1837 21.0441 51.0803 19.5898 50.868 18.1499L52.513 14.7229C54.7788 20.4301 54.3368 30.3028 48.8873 33.7995C47.9561 35.2019 47.1106 36.2399 45.7893 37.2962C41.0814 41.057 34.2635 41.5387 28.5023 41.3211C23.6627 41.1377 18.2072 40.1364 14.5174 36.7045L13.9473 36.1262ZM7.73088 8.4728L7.41444 8.15492C4.70539 11.4805 3 16.1044 3 22.4988C3 41.8603 18.6106 45 30.5 45C42.3882 45 58 41.8603 58 22.4988C58 16.1044 56.2946 11.4805 53.5843 8.1537L53.2703 8.4618C53.2124 10.1551 52.9237 11.9084 52.6821 13.5638C53.8694 16.1521 54.431 19.2283 54.5107 22.4988C54.6846 32.116 49.8559 42.2197 30.5 42.8787C18.3316 42.7809 10.6851 38.9822 7.56059 31.0449C5.49166 29.7147 4.48074 27.2634 3.52297 24.8853C3.13648 19.8726 3.85149 14.2412 6.63422 9.95952L7.22603 9.12446C7.45189 10.7554 7.73209 12.9207 8.2297 13.3352C14.3894 18.5705 25.2268 17.8956 30.4408 28.4444C36.1089 16.7463 46.1142 18.2233 52.2727 12.9904L52.8464 7.97642C45.6649 15.8342 35.9036 13.1689 30.442 24.922C24.5565 13.3829 14.9305 16.2304 7.73088 8.4728ZM12.556 11.2812C16.2494 5.49571 23.2449 4.05545 30.5 4.07991C37.6307 4.05545 44.5127 5.4468 48.2701 11.0562L52.7135 7.64998H52.7123L52.9756 7.44702C47.3993 1.31066 38.1755 0 30.4988 0C22.6615 0 13.2094 1.3669 7.67653 7.84193L7.7804 7.92751V7.92873L8.00988 8.11702C9.20559 9.2993 10.5245 10.5427 11.8639 11.2518C12.0813 11.3484 12.3253 11.3863 12.556 11.2836V11.2824V11.2812ZM52.3041 7.36633L50.3016 8.6403C44.3617 3.35122 38.0341 2.0589 30.5 2.11148C22.8873 2.0589 16.2083 3.43069 10.3469 9.07434L8.29371 7.80036C10.4073 5.52016 12.7553 3.98821 15.6225 2.83405C21.8764 0.317883 30.7536 -0.0171168 37.3989 0.848503C42.7203 1.54173 48.2375 3.26319 52.1314 7.18171L52.3053 7.36755L52.3041 7.36633ZM30.4432 32.0071C27.9009 26.4845 25.1254 23.9916 20.8824 22.2102L10.266 18.5876L8.79977 14.4918C11.4134 16.5189 15.2578 17.8944 18.927 19.3285C24.5843 21.517 27.6593 24.2973 30.4432 29.9886V32.0059V32.0071ZM30.4432 32.0071C32.9844 26.4845 35.7611 23.6346 40.004 21.8545L50.5033 18.0533L51.9623 14.0883C49.3487 16.1154 45.218 17.656 41.5476 19.0913C35.8915 21.2786 33.226 24.2973 30.4432 29.9886V32.0059V32.0071ZM48.9465 14.6422C49.8064 14.1861 50.6506 13.7056 51.4297 13.1151L51.8681 12.7618L52.2787 9.17092C48.8511 12.3742 45.4511 13.5247 41.1732 15.3868C40.5439 15.6814 38.8699 16.4235 38.3011 16.8197C36.5631 18.3186 35.6935 19.7711 35.3384 21.3067C37.5414 19.4911 39.8857 18.3296 42.5114 17.2696C44.6673 16.3991 46.8546 15.657 48.9465 14.641V14.6422ZM36.2551 18.1633C35.7828 18.5069 34.3625 19.7259 34.0569 20.1685C33.4506 21.3238 33.1825 22.3814 33.2091 23.4035L34.4048 22.1381L34.7067 21.8618C34.8758 20.6441 35.3927 19.4251 36.2551 18.1646V18.1633ZM20.9138 16.3465C19.4138 15.6056 17.1878 14.7889 15.6032 14.1348C12.3772 12.7141 10.1464 11.5624 7.63185 8.99487C7.72122 9.62207 7.81301 10.2468 7.91205 10.8704C8.00384 11.3802 8.17535 12.6554 8.5401 13.032C8.96524 13.4733 10.3796 14.3585 10.9484 14.6789C13.4872 16.1093 16.4052 17.0703 19.0792 18.1682C20.816 18.9287 22.5214 19.7124 24.1193 20.7431C23.2243 19.2368 22.0926 17.7904 20.9138 16.3465Z" fill="#1E212A"/>
</g>
<defs>
<clipPath id="clip0_1_466">
<rect width="62" height="59" fill="white"/>
</clipPath>
</defs>
</svg>
