<svg width="99" height="41" viewBox="0 0 99 41" fill="none" xmlns="http://www.w3.org/2000/svg">
<g clip-path="url(#clip0_1_458)">
<path d="M83.3396 28.1416C81.4993 28.1682 80.5196 26.9938 80.5196 24.9104C80.5196 24.7711 80.5262 24.6384 80.5328 24.5057H87.7617C87.9073 23.955 88 23.3579 88 22.8072C88 20.266 86.4443 18.3286 83.2668 18.3286C80.0165 18.3286 77.1302 21.5399 77.1302 24.9104C77.1302 28.1416 79.2353 30.1055 82.7439 30.1055C84.2995 30.1055 85.8287 29.5814 86.9011 28.7653L86.2325 27.0867C85.3918 27.7302 84.3657 28.1151 83.3396 28.1416ZM83.3132 20.14C84.3856 20.14 84.935 20.8366 84.935 22.3693C84.935 22.5152 84.9284 22.6678 84.9085 22.8271H80.7844C81.2411 21.2148 82.1944 20.14 83.3132 20.14ZM54.7221 17.6054C54.7221 14.9714 52.67 13.0539 49.5586 13.0539H43.5412L39 29.8136H42.7998L44.4746 23.6365H47.7713C51.5446 23.6365 54.7221 21.1949 54.7221 17.6054ZM46.3083 21.6726H45.0042L46.8048 15.0178H48.1751C49.9029 15.0178 50.876 16.1922 50.876 17.7448C50.876 20.2395 48.9231 21.6726 46.3083 21.6726ZM59.6671 18.6338L60.0908 17.0746C60.3026 16.2586 60.6667 14.8719 61.1632 13.2662C61.6862 11.6141 62.646 10.5857 63.9369 10.5857C64.5592 10.5857 64.9431 10.871 64.9431 11.3487C64.9166 11.8729 64.4864 12.1847 64.4864 13.0274C64.4864 14.0093 65.3205 14.7723 66.3995 14.7723C67.7367 14.7723 68.8091 13.6975 68.8091 12.3772C68.8091 10.3402 67.0681 9 64.4135 9C60.5211 9 57.9658 11.4881 56.3638 17.3069L49.8698 41H53.5504L59.164 20.4783H62.9903L60.4747 29.8136H64.1554L67.1674 18.6338H59.6671Z" fill="#1E212A"/>
<path d="M77.6556 18H67.9338L67.4586 19.8163H72.1644L64.8648 29.0091H75.1542L75.6294 27.1927H70.3362L77.6556 18ZM96.9012 17.8105C95.5878 17.8105 94.1886 18.6534 93.093 20.3978L93.7332 18H90.0636L87.0606 29.0091H90.7302L92.0898 24.0566C92.6376 22.0312 93.9708 20.045 94.8552 20.045C95.8056 20.045 95.4492 21.8156 97.0926 21.8156C98.2806 21.8156 99 20.731 99 19.7379C98.9934 18.588 98.0628 17.8105 96.9012 17.8105ZM4.257 18.5684C7.062 17.5427 11.8404 17.2813 18.1764 18L20.0442 11.0091C12.8238 10.029 5.2404 10.7543 3.4716 13.2697C2.6928 14.4 2.4882 16.7652 4.257 18.5684ZM32.0958 17.4381C29.2908 18.4639 24.5124 18.7252 18.1764 18.0065L16.3086 24.9975C23.529 25.9775 31.1124 25.2523 32.8812 22.7368C33.66 21.6 33.8646 19.2348 32.0958 17.4381ZM34.5906 19.9013L35.7324 15.6871C36.1482 14.1975 36.3528 13.4265 36.3528 12.8058C36.3528 7.40907 22.0638 0.823231 8.4546 0L6.534 6.99093C20.559 7.97096 34.9008 14.7071 34.5312 19.9013H34.5906ZM1.7622 16.0987L0.6204 20.3129C0.2046 21.8025 0 22.5735 0 23.1942C0 28.5909 14.289 35.1768 27.8982 36L29.8188 29.0091C15.7872 28.029 1.452 21.2929 1.815 16.0987H1.7622Z" fill="#1E212A"/>
</g>
<defs>
<clipPath id="clip0_1_458">
<rect width="99" height="41" fill="white"/>
</clipPath>
</defs>
</svg>
