<svg width="82" height="31" viewBox="0 0 82 31" fill="none" xmlns="http://www.w3.org/2000/svg">
<path fill-rule="evenodd" clip-rule="evenodd" d="M65.0089 9.90436C65.0089 6.00875 67.8969 4.12552 71.0098 4.12552C74.1228 4.12552 76.9289 6.04104 76.9289 9.90436H65.0089ZM70.4588 0C64.1153 0 59.963 4.45102 59.963 11.7915C59.963 20.9027 66.3142 23.517 70.85 23.517C76.5965 23.517 79.8718 19.5672 79.8718 19.5672L76.9494 16.5706C75.3986 17.9952 73.5999 18.8477 70.9216 18.8477C67.3855 18.8477 65.0025 16.732 65.0025 13.8387H80.7578C80.7578 13.8387 83.5102 0 70.4588 0ZM13.1971 9.5117C11.2335 9.25337 5.54451 9.48586 5.54451 6.76436C5.54451 5.15109 7.92876 4.2844 10.1276 4.2844C13.6407 4.2844 15.956 5.75688 16.6284 6.2477L19.5803 3.15033C18.7058 2.40892 15.4535 0 10.1276 0C5.27476 0 0.907678 2.66338 0.907678 6.93486C0.907678 13.4887 8.44141 13.4861 11.5876 13.809C13.4924 14.004 15.2324 14.1423 15.2324 16.103C15.2324 17.9268 12.572 18.9407 10.5112 18.9407C7.15532 18.9407 5.14308 17.7834 3.17559 15.926L0 19.2636C2.91352 22.2163 6.60432 23.517 10.2401 23.517C15.8703 23.517 19.9868 20.9079 19.9868 15.6599C19.9868 12.1802 17.7598 10.1097 13.1971 9.5117ZM34.4368 14.841C34.4368 19.1952 31.4709 18.9614 28.8207 18.9614C26.1398 18.9614 24.4268 18.2135 24.4268 16.2619C24.4268 14.4406 25.8215 13.8387 28.7031 13.8387H34.4368V14.841ZM29.4804 0C24.5674 0 21.3828 2.61688 20.7909 3.14516L23.7697 6.26062C24.3616 5.7685 26.3827 4.31023 29.5187 4.31023C33.2811 4.31023 34.4048 5.87958 34.4048 7.6556V9.86561L27.697 9.87078C25.2168 9.87078 20.3384 10.5243 20.3384 16.2347C20.3384 20.4287 22.6383 23.517 28.1278 23.517C30.8828 23.517 32.9666 22.5819 34.4048 20.78V23.0572H39.2743V7.99272C39.2731 2.72538 36.1844 0 29.4804 0ZM54.5463 11.3872C54.5463 13.0896 54.5169 14.3502 54.3789 14.9909C54.072 16.4091 52.4408 18.2729 49.4812 18.2729C48.7398 18.2729 44.9428 17.8532 44.5184 14.6034C44.4328 13.9524 44.3676 13.0896 44.3676 11.3872C44.3676 8.85554 44.4724 8.05213 44.6041 7.40889C44.8649 6.13404 46.5524 4.25856 49.4812 4.25856C53.0685 4.25856 54.2203 6.67395 54.3891 7.60781C54.5054 8.25363 54.5463 9.68607 54.5463 11.3872ZM54.5463 0.468868V2.91912C52.8435 0.964861 50.8134 0 48.0392 0C43.3014 0 40.8621 2.62592 40.0363 5.42234C39.7295 6.46082 39.6233 8.44479 39.6233 11.3768C39.6233 14.141 39.6489 16.6545 40.6205 18.5868C41.9807 21.2902 45.2816 22.8002 48.0379 22.8002C50.7098 22.8002 52.9764 21.7772 54.5451 19.9999V21.3729C54.5451 22.9849 53.9864 24.0427 52.9432 24.8797C51.8974 25.7193 50.5858 26.2334 48.7653 26.2334C47.1149 26.2334 45.5309 25.3421 44.6296 24.7234L41.2712 28.043C43.4484 29.7867 46.0525 30.975 48.8612 30.9996C51.8386 31.0228 54.2344 30.1316 56.3336 28.5002C58.3432 26.9386 59.6102 24.0014 59.6102 20.8872V0.468868H54.5463Z" fill="#1E212A"/>
</svg>
