<svg width="128" height="21" viewBox="0 0 128 21" fill="none" xmlns="http://www.w3.org/2000/svg">
<g clip-path="url(#clip0_1_464)">
<path fill-rule="evenodd" clip-rule="evenodd" d="M126.503 1.20227V4.94473C124.528 4.21198 122.77 3.84243 121.231 3.84243C120.319 3.84243 119.594 4.00752 119.048 4.32881C118.501 4.65137 118.223 5.04886 118.223 5.51873C118.223 6.14353 118.839 6.69976 120.081 7.1963L123.664 8.90942C126.562 10.2657 128 12.0677 128 14.3307C128 16.2115 127.237 17.7125 125.698 18.8224C124.17 19.945 122.115 20.5 119.554 20.5C118.373 20.5 117.313 20.4492 116.37 20.3451C115.427 20.246 114.344 20.0403 113.142 19.7482V15.8305C115.345 16.5632 117.351 16.9328 119.157 16.9328C121.313 16.9328 122.385 16.3194 122.385 15.0812C122.385 14.4653 121.946 13.9688 121.053 13.5789L117.073 11.9128C115.604 11.26 114.512 10.4702 113.798 9.53422C113.094 8.5894 112.738 7.50616 112.738 6.26798C112.738 4.53581 113.48 3.14017 114.948 2.07851C116.429 1.02829 118.392 0.5 120.834 0.5C121.628 0.5 122.542 0.568576 123.554 0.695568C124.576 0.83145 125.557 0.997809 126.503 1.20227ZM13.7561 1.20227V4.94473C11.7824 4.21198 10.0264 3.84243 8.48808 3.84243C7.57356 3.84243 6.84989 4.00752 6.30426 4.32881C5.75862 4.65137 5.48068 5.04886 5.48068 5.51873C5.48068 6.14353 6.10445 6.69976 7.34557 7.1963L10.9293 8.90942C13.8163 10.2657 15.2573 12.0677 15.2573 14.3307C15.2573 16.2115 14.4913 17.7125 12.9646 18.8224C11.425 19.945 9.37954 20.5 6.81147 20.5C5.62926 20.5 4.56617 20.4492 3.62348 20.3451C2.68078 20.246 1.60873 20.0403 0.39962 19.7482V15.8305C2.61034 16.5632 4.61612 16.9328 6.41185 16.9328C8.56621 16.9328 9.63955 16.3194 9.63955 15.0812C9.63955 14.4653 9.20278 13.9688 8.31901 13.5789L4.33818 11.9141C2.85882 11.2613 1.76627 10.4714 1.06309 9.53549C0.348386 8.5894 0 7.50743 0 6.26926C0 4.53708 0.736479 3.14144 2.21456 2.07978C3.68239 1.02829 5.64847 0.5 8.09102 0.5C8.89282 0.5 9.79581 0.568576 10.8192 0.695568C11.8323 0.83145 12.8147 0.997809 13.7574 1.20227H13.7561ZM17.8638 0.850498H23.7018V20.1508H17.8638V0.850498ZM42.5083 0.850498V4.41898H33.8358V8.69862H41.3581V11.9141H33.8358V16.407H42.6863V20.1508H28.2167V0.850498H42.5083ZM69.7618 0.850498V20.1508H64.3106V7.42107L58.6557 20.3273H55.2935L49.8551 7.42107V20.1508H45.9127V0.850498H53.0393L57.9039 12.6659L62.9913 0.850498H69.7605H69.7618ZM88.5606 0.850498V4.41898H79.9342V8.69862H87.4565V11.9141H79.9342V16.407H88.7374V20.1508H74.2691V0.850498H88.5606ZM109.044 0.850498V20.1508H102.852L95.9036 7.77284V20.1508H91.9638V0.850498H98.3372L105.105 13.0163V0.850498H109.044Z" fill="#1E212A"/>
</g>
<defs>
<clipPath id="clip0_1_464">
<rect width="128" height="20" fill="white" transform="translate(0 0.5)"/>
</clipPath>
</defs>
</svg>
