<svg width="24" height="24" viewBox="0 0 24 24" fill="none" xmlns="http://www.w3.org/2000/svg">
<path d="M11 4H4C3.46957 4 2.96086 4.21071 2.58579 4.58579C2.21071 4.96086 2 5.46957 2 6V20C2 20.5304 2.21071 21.0391 2.58579 21.4142C2.96086 21.7893 3.46957 22 4 22H18C18.5304 22 19.0391 21.7893 19.4142 21.4142C19.7893 21.0391 20 20.5304 20 20V13" stroke="#EE5D4A" stroke-width="1.5" stroke-linecap="round" stroke-linejoin="round"/>
<path d="M18.5 2.49998C18.697 2.303 18.9308 2.14674 19.1882 2.04014C19.4456 1.93353 19.7214 1.87866 20 1.87866C20.2786 1.87866 20.5544 1.93353 20.8118 2.04014C21.0692 2.14674 21.303 2.303 21.5 2.49998C21.697 2.69697 21.8532 2.93082 21.9598 3.18819C22.0665 3.44556 22.1213 3.72141 22.1213 3.99998C22.1213 4.27856 22.0665 4.55441 21.9598 4.81178C21.8532 5.06915 21.697 5.303 21.5 5.49998L12 15L8 16L9 12L18.5 2.49998Z" stroke="#EE5D4A" stroke-width="1.5" stroke-linecap="round" stroke-linejoin="round"/>
</svg>
